<?xml version="1.0" encoding="UTF-8" standalone="no"?>

<!DOCTYPE svg PUBLIC "-//W3C//DTD SVG 1.1//EN" "http://www.w3.org/Graphics/SVG/1.1/DTD/svg11.dtd">
<svg width="25" height="25" viewBox="0 0 25 25" version="1.1" xmlns="http://www.w3.org/2000/svg" xmlns:xlink="http://www.w3.org/1999/xlink"><defs><path d="M8 406.27C8 498.1 91.27 572.55 193.99 572.55C296.72 572.56 380 498.11 380 406.28C380 314.45 296.73 240 194.01 240C91.28 240 8 314.44 8 406.27Z" id="a31OXKsgh4"></path><path d="M8 415.45C8 502.21 87.9 572.55 186.47 572.55C285.04 572.56 364.95 502.22 364.95 415.45C364.95 328.69 285.05 258.35 186.48 258.35C87.91 258.34 8 328.68 8 415.45Z" id="a6kHfvWw8X"></path><path d="M205.77 394.27C205.77 394.27 205.77 394.27 205.77 394.27C211.33 384.83 225.76 376.25 246.06 376.25C288.31 376.25 293.07 397.97 293.07 430.3C293.07 434.7 293.07 456.72 293.06 496.35C289.03 496.35 256.8 496.35 252.77 496.35C252.77 460.31 252.77 440.3 252.77 436.3C252.77 422.38 254.03 406.28 232.61 406.28C205.74 406.28 205.74 420.64 205.74 436.29C205.74 440.3 205.74 460.31 205.74 496.35C203.05 496.35 189.62 496.34 165.44 496.34L165.46 376.25L165.46 376.25L205.77 376.25C205.77 387.06 205.77 393.07 205.77 394.27Z" id="c1aGK2iplj"></path><path d="M205.77 394.27C205.77 394.27 205.77 394.27 205.77 394.27C211.33 384.83 225.76 376.25 246.06 376.25C288.31 376.25 293.07 397.97 293.07 430.3C293.07 434.7 293.07 456.72 293.06 496.35C289.03 496.35 256.8 496.35 252.77 496.35C252.77 460.31 252.77 440.3 252.77 436.3C252.77 422.38 254.03 406.28 232.61 406.28C205.74 406.28 205.74 420.64 205.74 436.29C205.74 440.3 205.74 460.31 205.74 496.35C203.05 496.35 189.62 496.34 165.44 496.34L165.46 376.25L165.46 376.25L205.77 376.25C205.77 387.06 205.77 393.07 205.77 394.27Z" id="eHgA6dWtm"></path><path d="M138.65 376.16C138.51 448.22 138.43 488.25 138.41 496.25C138.41 496.25 138.41 496.25 138.41 496.25C114.23 496.21 100.8 496.19 98.12 496.19C98.12 496.19 98.12 496.19 98.12 496.19C98.25 424.13 98.33 384.1 98.35 376.09C98.35 376.09 98.35 376.09 98.35 376.09C122.53 376.14 135.96 376.16 138.65 376.16C138.65 376.16 138.65 376.16 138.65 376.16Z" id="ahVoPUQ0D"></path><path d="M138.65 376.16C138.51 448.22 138.43 488.25 138.41 496.25C138.41 496.25 138.41 496.25 138.41 496.25C114.23 496.21 100.8 496.19 98.12 496.19C98.12 496.19 98.12 496.19 98.12 496.19C98.25 424.13 98.33 384.1 98.35 376.09C98.35 376.09 98.35 376.09 98.35 376.09C122.53 376.14 135.96 376.16 138.65 376.16C138.65 376.16 138.65 376.16 138.65 376.16Z" id="g6GXwhGqjY"></path><path d="M95.07 337.06C95.04 348.67 105.55 358.09 118.53 358.11C131.51 358.14 142.06 348.74 142.08 337.14C142.1 325.53 131.6 316.11 118.61 316.09C105.63 316.07 95.09 325.46 95.07 337.06Z" id="e1x2fwMpZ"></path><path d="M95.07 337.06C95.04 348.67 105.55 358.09 118.53 358.11C131.51 358.14 142.06 348.74 142.08 337.14C142.1 325.53 131.6 316.11 118.61 316.09C105.63 316.07 95.09 325.46 95.07 337.06Z" id="af7hjBYAJ"></path></defs><g><g><g><use xlink:href="#a31OXKsgh4" opacity="1" fill="#489458" fill-opacity="1"></use><g><use xlink:href="#a31OXKsgh4" opacity="1" fill-opacity="0" stroke="#000000" stroke-width="1" stroke-opacity="0"></use></g></g><g><use xlink:href="#a6kHfvWw8X" opacity="1" fill="#000000" fill-opacity="0"></use><g><use xlink:href="#a6kHfvWw8X" opacity="1" fill-opacity="0" stroke="#000000" stroke-width="1" stroke-opacity="0"></use></g></g><g><use xlink:href="#c1aGK2iplj" opacity="1" fill="#ffffff" fill-opacity="1"></use><g><use xlink:href="#c1aGK2iplj" opacity="1" fill-opacity="0" stroke="#000000" stroke-width="1" stroke-opacity="0"></use></g></g><g><use xlink:href="#eHgA6dWtm" opacity="1" fill="#000000" fill-opacity="0"></use><g><use xlink:href="#eHgA6dWtm" opacity="1" fill-opacity="0" stroke="#000000" stroke-width="1" stroke-opacity="0"></use></g></g><g><use xlink:href="#ahVoPUQ0D" opacity="1" fill="#ffffff" fill-opacity="1"></use><g><use xlink:href="#ahVoPUQ0D" opacity="1" fill-opacity="0" stroke="#000000" stroke-width="1" stroke-opacity="0"></use></g></g><g><use xlink:href="#g6GXwhGqjY" opacity="1" fill="#000000" fill-opacity="0"></use><g><use xlink:href="#g6GXwhGqjY" opacity="1" fill-opacity="0" stroke="#000000" stroke-width="1" stroke-opacity="0"></use></g></g><g><use xlink:href="#e1x2fwMpZ" opacity="1" fill="#ffffff" fill-opacity="1"></use><g><use xlink:href="#e1x2fwMpZ" opacity="1" fill-opacity="0" stroke="#000000" stroke-width="1" stroke-opacity="0"></use></g></g><g><use xlink:href="#af7hjBYAJ" opacity="1" fill="#000000" fill-opacity="0"></use><g><use xlink:href="#af7hjBYAJ" opacity="1" fill-opacity="0" stroke="#000000" stroke-width="1" stroke-opacity="0"></use></g></g></g></g></svg>
