<?xml version="1.0" encoding="UTF-8" standalone="no"?>
<!DOCTYPE svg PUBLIC "-//W3C//DTD SVG 1.1//EN" "http://www.w3.org/Graphics/SVG/1.1/DTD/svg11.dtd">
<svg version="1.1" xmlns="http://www.w3.org/2000/svg" xmlns:xlink="http://www.w3.org/1999/xlink" preserveAspectRatio="xMidYMid meet" viewBox="0 0 640 640" width="640" height="640"><defs><path d="M45.94 22.55L35.76 12.64L12.78 35.02L22.95 44.94L45.94 44.94L45.94 22.55Z" id="a43eGYDv1A"></path><linearGradient id="gradienta29LW8MFG3" gradientUnits="userSpaceOnUse" x1="45.94" y1="44.94" x2="24.27" y2="23.83"><stop style="stop-color: #ffffff;stop-opacity: 0" offset="31.630000000000003%"></stop><stop style="stop-color: #e9e9e9;stop-opacity: 0.0504" offset="35.08%"></stop><stop style="stop-color: #acacac;stop-opacity: 0.2018" offset="45.43%"></stop><stop style="stop-color: #787878;stop-opacity: 0.3523" offset="55.720000000000006%"></stop><stop style="stop-color: #4d4d4d;stop-opacity: 0.4981" offset="65.69%"></stop><stop style="stop-color: #2b2b2b;stop-opacity: 0.6385" offset="75.28%"></stop><stop style="stop-color: #131313;stop-opacity: 0.7719" offset="84.41%"></stop><stop style="stop-color: #050505;stop-opacity: 0.8956" offset="92.86%"></stop><stop style="stop-color: #000000;stop-opacity: 1" offset="100%"></stop></linearGradient><path d="M24.25 8C15.28 8 8 15.09 8 23.83C8 32.57 15.28 39.66 24.25 39.66C33.22 39.66 40.5 32.57 40.5 23.83C40.5 15.09 33.22 8 24.25 8Z" id="bcX6rIetr"></path><path d="M53.64 42.82C53.61 42.8 53.59 42.77 53.57 42.75C53.54 42.73 53.52 42.7 53.5 42.68C53.47 42.66 53.45 42.63 53.42 42.61C53.4 42.59 53.38 42.56 53.35 42.54C53.33 42.52 53.3 42.49 53.28 42.47C53.25 42.45 53.23 42.42 53.21 42.4C53.18 42.38 53.16 42.35 53.13 42.33C53.11 42.31 53.08 42.28 53.06 42.26C53.03 42.24 53.01 42.21 52.99 42.19C52.96 42.17 52.94 42.14 52.91 42.12C52.89 42.1 52.87 42.07 52.84 42.05C52.82 42.03 52.79 42 52.77 41.98C52.74 41.96 52.72 41.93 52.69 41.91C52.67 41.89 52.65 41.86 52.62 41.84C52.6 41.82 52.58 41.79 52.55 41.77C52.52 41.75 52.5 41.72 52.48 41.7C52.45 41.68 52.43 41.65 52.4 41.63C52.38 41.61 52.36 41.58 52.33 41.56C52.31 41.54 52.29 41.51 52.26 41.49C52.24 41.47 52.21 41.44 52.19 41.42C52.16 41.4 52.14 41.37 52.11 41.35C52.09 41.33 52.07 41.3 52.04 41.28C52.02 41.26 52 41.24 51.97 41.21C51.94 41.19 51.92 41.16 51.89 41.14C51.87 41.12 51.85 41.1 51.83 41.08C51.8 41.05 51.78 41.03 51.75 41C51.72 40.98 51.7 40.96 51.68 40.93C51.65 40.91 51.63 40.88 51.6 40.86C51.58 40.84 51.56 40.82 51.53 40.79C51.51 40.77 51.48 40.75 51.46 40.72C51.43 40.7 51.41 40.68 51.39 40.65C51.36 40.63 51.34 40.61 51.31 40.58C51.29 40.56 51.27 40.54 51.24 40.51C51.22 40.49 51.2 40.47 51.17 40.45C51.14 40.42 51.12 40.4 51.1 40.38C51.07 40.35 51.05 40.33 51.02 40.31C51 40.28 50.98 40.26 50.95 40.24C50.93 40.21 50.9 40.19 50.88 40.17C50.85 40.14 50.83 40.12 50.81 40.1C50.78 40.07 50.76 40.05 50.73 40.03C50.71 40 50.69 39.98 50.66 39.96C50.64 39.93 50.61 39.91 50.59 39.89C50.56 39.86 50.54 39.84 50.51 39.82C50.49 39.79 50.47 39.77 50.44 39.75C50.42 39.73 50.4 39.7 50.37 39.68C50.35 39.66 50.32 39.63 50.3 39.61C50.27 39.59 50.25 39.56 50.22 39.54C50.2 39.52 50.18 39.49 50.15 39.47C50.13 39.45 50.11 39.42 50.08 39.4C50.05 39.38 50.03 39.35 50.01 39.33C49.98 39.31 49.96 39.28 49.94 39.26C49.91 39.24 49.89 39.21 49.86 39.19C49.84 39.17 49.81 39.14 49.79 39.12C49.76 39.1 49.74 39.07 49.72 39.05C49.69 39.03 49.67 39 49.64 38.98C49.62 38.96 49.6 38.93 49.57 38.91C49.55 38.89 49.53 38.86 49.5 38.84C49.47 38.82 49.45 38.79 49.43 38.77C49.4 38.75 49.38 38.72 49.35 38.7C49.33 38.68 49.31 38.66 49.28 38.63C49.26 38.61 49.23 38.58 49.21 38.56C49.18 38.54 49.16 38.51 49.14 38.49C49.11 38.47 49.09 38.44 49.06 38.42C49.04 38.4 49.02 38.38 48.99 38.35C48.97 38.33 48.94 38.3 48.92 38.28C48.89 38.26 48.87 38.23 48.85 38.21C48.82 38.19 48.8 38.16 48.77 38.14C48.75 38.12 48.72 38.09 48.7 38.07C48.67 38.05 48.65 38.03 48.63 38C48.6 37.98 48.58 37.96 48.55 37.93C48.53 37.91 48.51 37.89 48.48 37.86C48.46 37.84 48.44 37.82 48.41 37.79C48.38 37.77 48.36 37.75 48.34 37.72C48.31 37.7 48.29 37.68 48.26 37.65C48.24 37.63 48.22 37.61 48.19 37.58C48.17 37.56 48.15 37.54 48.12 37.51C48.09 37.49 48.07 37.47 48.04 37.44C48.02 37.42 48 37.4 47.97 37.38C47.95 37.35 47.93 37.33 47.9 37.3C47.88 37.28 47.85 37.26 47.83 37.23C47.8 37.21 47.78 37.19 47.75 37.16C47.73 37.14 47.71 37.12 47.68 37.09C47.66 37.07 47.64 37.05 47.61 37.03C47.59 37 47.56 36.98 47.54 36.96C47.51 36.93 47.49 36.91 47.47 36.89C47.44 36.86 47.42 36.84 47.39 36.82C47.37 36.79 47.35 36.77 47.32 36.75C47.3 36.72 47.27 36.7 47.25 36.68C47.22 36.65 47.2 36.63 47.17 36.61C47.15 36.58 47.13 36.56 47.1 36.54C47.08 36.51 47.06 36.49 47.03 36.47C47 36.45 46.98 36.42 46.96 36.4C46.93 36.37 46.91 36.35 46.88 36.33C46.86 36.3 46.84 36.28 46.81 36.26C46.79 36.24 46.77 36.21 46.74 36.19C46.71 36.17 46.69 36.14 46.66 36.12C46.64 36.1 46.62 36.07 46.59 36.05C46.57 36.03 46.55 36 46.52 35.98C46.49 35.95 46.47 35.93 46.45 35.91C46.42 35.89 46.4 35.86 46.38 35.84C46.35 35.82 46.33 35.79 46.3 35.77C46.28 35.75 46.26 35.72 46.23 35.7C46.21 35.68 46.18 35.65 46.16 35.63C46.13 35.61 46.11 35.58 46.09 35.56C46.06 35.54 46.04 35.51 46.01 35.49C45.99 35.47 45.96 35.44 45.94 35.42C45.91 35.4 45.89 35.37 45.87 35.35C45.84 35.33 45.82 35.3 45.79 35.28C45.77 35.26 45.75 35.23 45.72 35.21C45.7 35.19 45.68 35.16 45.65 35.14C45.62 35.12 45.6 35.09 45.58 35.07C45.55 35.05 45.53 35.02 45.5 35C45.48 34.98 45.46 34.96 45.43 34.93C45.4 34.91 45.38 34.89 45.36 34.86C45.33 34.84 45.31 34.82 45.29 34.79C45.26 34.77 45.24 34.75 45.21 34.72C45.19 34.7 45.17 34.68 45.14 34.65C45.11 34.63 45.09 34.61 45.06 34.58C45.04 34.56 45.02 34.54 44.99 34.52C44.97 34.49 44.95 34.47 44.92 34.45C44.9 34.42 44.88 34.4 44.85 34.38C44.82 34.35 44.8 34.33 44.78 34.31C44.75 34.28 44.73 34.26 44.71 34.24C44.68 34.21 44.66 34.19 44.63 34.16C44.61 34.14 44.58 34.12 44.56 34.1C44.53 34.07 44.51 34.05 44.49 34.03C44.46 34 44.44 33.98 44.41 33.96C44.39 33.93 44.37 33.91 44.34 33.89C44.32 33.87 44.3 33.84 44.27 33.82C44.24 33.8 44.22 33.77 44.2 33.75C44.17 33.73 44.15 33.7 44.12 33.68C44.1 33.66 44.08 33.63 44.05 33.61C44.03 33.59 44 33.56 43.98 33.54C43.95 33.52 43.93 33.49 43.9 33.47C43.88 33.45 43.86 33.42 43.83 33.4C43.81 33.38 43.79 33.35 43.76 33.33C43.73 33.31 43.71 33.28 43.69 33.26C43.66 33.24 43.64 33.21 43.61 33.19C43.59 33.17 43.57 33.14 43.54 33.12C43.52 33.1 43.49 33.07 43.47 33.05C43.44 33.03 43.42 33 43.4 32.98C43.37 32.96 43.35 32.93 43.32 32.91C43.3 32.89 43.28 32.86 43.25 32.84C43.23 32.82 43.21 32.79 43.18 32.77C43.15 32.75 43.13 32.72 43.11 32.7C43.08 32.68 43.06 32.65 43.03 32.63C43.01 32.61 42.99 32.58 42.96 32.56C42.94 32.54 42.91 32.51 42.89 32.49C42.86 32.47 42.84 32.44 42.81 32.42C42.79 32.4 42.77 32.38 42.74 32.35C42.72 32.33 42.7 32.31 42.67 32.28C42.65 32.26 42.62 32.23 42.6 32.21C42.57 32.19 42.55 32.16 42.52 32.14C42.5 32.12 42.48 32.1 42.45 32.07C42.43 32.05 42.41 32.03 42.38 32.01C42.36 31.98 42.33 31.96 42.31 31.93C42.28 31.91 42.26 31.89 42.24 31.87C42.21 31.84 42.19 31.82 42.16 31.8C42.14 31.77 42.12 31.75 42.09 31.72C42.06 31.7 42.05 31.68 42.02 31.66C41.99 31.63 41.97 31.61 41.94 31.59C41.92 31.56 41.9 31.54 41.87 31.52C41.85 31.49 41.82 31.47 41.8 31.45C41.77 31.42 41.75 31.4 41.73 31.38C41.7 31.35 41.68 31.33 41.65 31.31C41.63 31.28 41.61 31.26 41.58 31.24C41.56 31.22 41.54 31.19 41.51 31.17C41.48 31.15 41.46 31.12 41.43 31.1C41.41 31.08 41.39 31.05 41.36 31.03C41.34 31.01 41.32 30.98 41.29 30.96C41.26 30.94 41.24 30.91 41.22 30.89C41.19 30.87 41.17 30.84 41.15 30.82C41.12 30.8 41.1 30.77 41.07 30.75C41.05 30.73 41.02 30.7 41 30.68C40.97 30.66 40.95 30.63 40.93 30.61C40.9 30.59 40.88 30.56 40.86 30.54C40.83 30.52 40.81 30.49 40.78 30.47C40.75 30.45 40.73 30.42 40.71 30.4C40.68 30.38 40.66 30.35 40.64 30.33C40.61 30.31 40.59 30.28 40.56 30.26C40.54 30.24 40.52 30.21 40.49 30.19C40.46 30.17 40.44 30.14 40.42 30.12C40.39 30.1 40.37 30.07 40.35 30.05C40.32 30.03 40.3 30 40.27 29.98C40.25 29.96 40.23 29.93 40.2 29.91C40.18 29.89 40.15 29.86 40.13 29.84C40.1 29.82 40.08 29.79 40.06 29.77C40.03 29.75 40.01 29.72 39.98 29.7C39.96 29.68 39.94 29.65 39.91 29.63C39.88 29.61 39.86 29.58 39.84 29.56C39.81 29.54 39.79 29.51 39.76 29.49C39.74 29.47 39.72 29.44 39.69 29.42C39.67 29.4 39.65 29.37 39.62 29.35C39.6 29.33 39.57 29.3 39.55 29.28C39.52 29.26 39.5 29.24 39.48 29.21C39.45 29.19 39.43 29.17 39.4 29.14C39.38 29.12 39.35 29.1 39.33 29.07C39.3 29.05 39.28 29.03 39.26 29C39.23 28.98 39.21 28.96 39.19 28.94C39.16 28.91 39.14 28.89 39.11 28.86C39.09 28.84 39.07 28.82 39.04 28.8C39.01 28.77 38.99 28.75 38.97 28.73C38.94 28.7 38.92 28.68 38.89 28.66C38.87 28.63 38.85 28.61 38.82 28.59C38.8 28.56 38.78 28.54 38.75 28.52C38.72 28.49 38.7 28.47 38.68 28.45C38.65 28.42 38.63 28.4 38.6 28.38C38.58 28.35 38.56 28.33 38.53 28.31C38.51 28.29 38.48 28.26 38.46 28.24C38.43 28.21 38.41 28.19 38.39 28.17C38.36 28.14 38.34 28.12 38.31 28.1C38.29 28.07 38.27 28.05 38.24 28.03C38.22 28.01 38.19 27.98 38.17 27.96C38.14 27.93 38.12 27.91 38.09 27.89C38.07 27.86 38.05 27.84 38.02 27.82C38 27.79 37.98 27.77 37.95 27.75C37.93 27.73 37.9 27.7 37.88 27.68C37.85 27.66 37.83 27.63 37.81 27.61C37.78 27.59 37.76 27.56 37.73 27.54C37.71 27.52 37.69 27.49 37.66 27.47C37.64 27.45 37.61 27.42 37.58 27.4C37.56 27.38 37.54 27.35 37.51 27.33C37.49 27.31 37.47 27.28 37.44 27.26C37.41 27.23 37.39 27.21 37.37 27.19C37.34 27.17 37.32 27.14 37.3 27.12C37.27 27.1 37.25 27.07 37.22 27.05C37.2 27.03 37.18 27 37.15 26.98C37.12 26.96 37.1 26.93 37.07 26.91C37.05 26.88 37.03 26.86 37 26.84C36.98 26.81 36.96 26.79 36.93 26.77C36.9 26.74 36.88 26.72 36.86 26.7C36.83 26.67 36.81 26.65 36.78 26.63C36.76 26.6 36.74 26.58 36.71 26.56C36.69 26.53 36.66 26.51 36.64 26.49C36.61 26.47 36.59 26.44 36.56 26.42C36.54 26.4 36.52 26.37 36.49 26.35C36.47 26.33 36.45 26.3 36.42 26.28C36.39 26.26 36.37 26.23 36.35 26.21C36.32 26.19 36.3 26.16 36.27 26.14C36.25 26.12 36.23 26.09 36.2 26.07C36.18 26.05 36.16 26.02 36.13 26C36.1 25.98 36.08 25.95 36.05 25.93C36.03 25.91 36.01 25.88 35.98 25.86C35.96 25.84 35.94 25.81 35.91 25.79C35.89 25.77 35.87 25.74 35.84 25.72C35.82 25.7 35.79 25.67 35.77 25.65C35.74 25.63 35.72 25.6 35.69 25.58C35.67 25.56 35.65 25.53 35.62 25.51C35.6 25.49 35.57 25.46 35.55 25.44C35.52 25.42 35.5 25.39 35.48 25.37C35.45 25.35 35.43 25.32 35.4 25.3C35.38 25.28 35.35 25.25 35.33 25.23C35.3 25.21 35.28 25.18 35.26 25.16C35.23 25.14 35.21 25.11 35.18 25.09C35.16 25.07 35.14 25.04 35.11 25.02C35.09 25 35.06 24.97 35.04 24.95C35.01 24.93 34.99 24.9 34.97 24.88C34.94 24.86 34.92 24.83 34.89 24.81C34.87 24.79 34.85 24.76 34.82 24.74C34.8 24.72 34.77 24.69 34.75 24.67C34.72 24.65 34.7 24.62 34.68 24.6C34.65 24.58 34.63 24.55 34.6 24.53C34.58 24.51 34.56 24.48 34.53 24.46C34.51 24.44 34.48 24.42 34.46 24.39C34.43 24.37 34.41 24.35 34.39 24.32C34.36 24.3 34.34 24.28 34.31 24.25C34.29 24.23 34.27 24.21 34.24 24.18C34.22 24.16 34.19 24.14 34.17 24.11C34.14 24.09 34.12 24.07 34.1 24.04C34.07 24.02 34.05 24 34.02 23.97C34 23.95 33.98 23.93 33.95 23.9C33.92 23.88 33.9 23.86 33.88 23.83C33.85 23.81 33.83 23.79 33.81 23.76C33.78 23.74 33.76 23.72 33.73 23.69C33.71 23.67 33.69 23.65 33.66 23.62C33.63 23.6 33.61 23.58 33.59 23.55C33.56 23.53 33.54 23.5 33.51 23.48C33.49 23.46 33.47 23.44 33.44 23.42C33.42 23.39 33.4 23.37 33.37 23.34C33.34 23.32 33.32 23.3 33.3 23.27C33.27 23.25 33.25 23.22 33.22 23.2C33.2 23.18 33.18 23.15 33.15 23.13C33.13 23.11 33.1 23.09 33.08 23.06C33.05 23.04 33.03 23.01 33.01 22.99C32.98 22.97 32.96 22.94 32.93 22.92C32.91 22.9 32.89 22.87 32.86 22.85C32.84 22.83 32.81 22.8 32.79 22.78C32.76 22.76 32.74 22.74 32.72 22.72C32.69 22.69 32.67 22.67 32.64 22.64C32.62 22.62 32.59 22.59 32.57 22.57C32.54 22.55 32.52 22.52 32.5 22.5C32.47 22.48 32.45 22.45 32.42 22.43C32.4 22.41 32.38 22.39 32.35 22.36C32.33 22.34 32.3 22.31 32.28 22.29C32.25 22.27 32.23 22.24 32.21 22.22C32.18 22.2 32.16 22.18 32.13 22.15C32.11 22.13 32.09 22.11 32.06 22.08C32.04 22.06 32.02 22.04 31.99 22.01C31.96 21.99 31.94 21.97 31.92 21.94C31.3 21.38 30.37 21.06 28.93 21.06C27.79 21.06 26.86 21.41 26.22 21.89C26.22 21.88 26.22 21.85 26.22 21.79L26.14 21.79L26.14 21.72L26.07 21.72L26.07 21.65L25.86 21.65L25.86 21.58L25.79 21.58L25.79 21.51L25.72 21.51L25.72 21.44L25.64 21.44L25.64 21.37L25.57 21.37L25.57 21.3L25.5 21.3L25.5 21.23L25.42 21.23L25.42 21.16L25.35 21.16L25.35 21.09L25.28 21.09L25.28 21.02C24.78 21.02 24.5 21.02 24.45 21.02C24.43 21.01 24.41 20.99 24.4 20.98C24.37 20.95 24.35 20.93 24.32 20.91C24.3 20.88 24.28 20.86 24.25 20.84C24.23 20.81 24.2 20.79 24.18 20.77C24.15 20.74 24.13 20.72 24.1 20.7C24.08 20.67 24.06 20.65 24.03 20.63C24.01 20.6 23.98 20.58 23.96 20.56C23.93 20.53 23.91 20.51 23.89 20.49C23.86 20.46 23.84 20.44 23.81 20.42C23.79 20.39 23.76 20.37 23.74 20.35C23.72 20.32 23.69 20.3 23.67 20.28C23.64 20.25 23.62 20.23 23.59 20.21C23.57 20.18 23.54 20.16 23.52 20.14C23.5 20.11 23.47 20.09 23.45 20.07C23.42 20.04 23.4 20.02 23.37 20C23.35 19.97 23.33 19.95 23.3 19.93C23.28 19.9 23.25 19.88 23.23 19.86C23.2 19.83 23.18 19.81 23.16 19.79C23.13 19.76 23.11 19.74 23.08 19.72C23.06 19.69 23.03 19.67 23.01 19.65C22.99 19.62 22.96 19.6 22.94 19.58C22.91 19.55 22.89 19.53 22.86 19.51C22.84 19.48 22.81 19.46 22.79 19.44C22.77 19.41 22.74 19.39 22.72 19.37C22.69 19.34 22.67 19.32 22.64 19.3C22.62 19.27 22.6 19.25 22.57 19.23C22.55 19.2 22.52 19.18 22.5 19.16C22.47 19.13 22.45 19.11 22.43 19.09C22.4 19.06 22.38 19.04 22.35 19.02C22.33 18.99 22.3 18.97 22.28 18.95C22.26 18.92 22.23 18.9 22.21 18.88C22.18 18.85 22.16 18.83 22.13 18.81C22.11 18.78 22.09 18.76 22.06 18.74C22.04 18.71 22.01 18.69 21.99 18.67C21.96 18.64 21.94 18.62 21.91 18.6C21.89 18.57 21.87 18.55 21.84 18.53C21.82 18.5 21.79 18.48 21.77 18.46C21.75 18.43 21.72 18.41 21.7 18.39C21.67 18.36 21.65 18.34 21.62 18.32C21.6 18.29 21.58 18.27 21.55 18.25C21.53 18.22 21.5 18.2 21.48 18.18C21.45 18.15 21.43 18.13 21.4 18.11C21.38 18.08 21.36 18.06 21.33 18.04C21.31 18.01 21.28 17.99 21.26 17.97C21.23 17.94 21.21 17.92 21.19 17.9C21.16 17.87 21.14 17.85 21.11 17.83C21.09 17.8 21.06 17.78 21.04 17.76C21.02 17.73 20.99 17.71 20.97 17.69C20.94 17.66 20.92 17.64 20.89 17.62C20.87 17.59 20.85 17.57 20.82 17.55C20.8 17.52 20.77 17.5 20.75 17.48C20.72 17.45 20.7 17.43 20.67 17.41C20.65 17.38 20.63 17.36 20.6 17.34C20.58 17.31 20.55 17.29 20.53 17.27C20.5 17.24 20.48 17.22 20.46 17.2C20.43 17.17 20.41 17.15 20.38 17.13C20.36 17.1 20.33 17.08 20.31 17.06C20.29 17.03 20.26 17.01 20.24 16.99C20.21 16.96 20.19 16.94 20.16 16.92C20.14 16.89 20.12 16.87 20.09 16.85C20.07 16.82 20.04 16.8 20.02 16.78C19.99 16.75 19.97 16.73 19.94 16.71C19.92 16.68 19.9 16.66 19.87 16.64C19.85 16.61 19.82 16.59 19.8 16.57C19.77 16.55 19.75 16.52 19.73 16.5C19.7 16.48 19.68 16.45 19.65 16.43C19.63 16.4 19.6 16.38 19.58 16.36C19.56 16.33 19.53 16.31 19.51 16.29C19.48 16.26 19.46 16.24 19.43 16.22C19.41 16.19 19.38 16.17 19.36 16.15C19.34 16.13 19.31 16.1 19.29 16.08C19.26 16.06 19.24 16.03 19.21 16.01C19.19 15.98 19.17 15.96 19.14 15.94C18.76 15.5 18.23 15.26 17.65 15.26C16.51 15.26 15.59 16.15 15.59 17.26C15.59 17.83 15.84 18.34 16.24 18.7C16.26 18.73 16.29 18.75 16.31 18.78C16.34 18.8 16.36 18.82 16.38 18.85C16.41 18.87 16.43 18.89 16.46 18.92C16.48 18.94 16.51 18.96 16.53 18.99C16.55 19.01 16.58 19.03 16.6 19.06C16.63 19.08 16.65 19.1 16.68 19.13C16.7 19.15 16.72 19.17 16.75 19.2C16.77 19.22 16.8 19.24 16.82 19.27C16.85 19.29 16.87 19.31 16.9 19.34C16.92 19.36 16.94 19.38 16.97 19.41C16.99 19.43 17.02 19.45 17.04 19.48C17.07 19.5 17.09 19.52 17.12 19.55C17.14 19.57 17.16 19.59 17.19 19.62C17.21 19.64 17.24 19.66 17.26 19.69C17.28 19.71 17.31 19.73 17.33 19.76C17.36 19.78 17.38 19.8 17.41 19.83C17.43 19.85 17.46 19.87 17.48 19.9C17.5 19.92 17.53 19.94 17.55 19.97C17.58 19.99 17.6 20.01 17.63 20.04C17.65 20.06 17.68 20.08 17.7 20.11C17.72 20.13 17.75 20.15 17.77 20.18C17.8 20.2 17.82 20.22 17.85 20.25C17.87 20.27 17.89 20.29 17.92 20.32C17.94 20.34 17.97 20.36 17.99 20.39C18.02 20.41 18.04 20.43 18.06 20.46C18.09 20.48 18.11 20.5 18.14 20.53C18.16 20.55 18.19 20.57 18.21 20.6C18.23 20.62 18.26 20.64 18.28 20.67C18.31 20.69 18.33 20.71 18.36 20.74C18.38 20.76 18.4 20.78 18.43 20.81C18.45 20.83 18.48 20.85 18.5 20.88C18.53 20.9 18.55 20.92 18.58 20.95C18.58 20.95 18.59 20.96 18.59 20.97C18.41 20.97 17.51 20.97 15.89 20.97L15.89 32.41L15.96 32.41L15.96 32.47L16.03 32.47L16.03 32.54L16.11 32.54L16.11 32.61L16.18 32.61L16.18 32.68L16.25 32.68L16.25 32.75L16.33 32.75L16.33 32.82L16.4 32.82L16.4 32.89L16.47 32.89L16.47 32.96L16.54 32.96L16.54 33.03L16.62 33.03L16.62 33.1L16.69 33.1L16.69 33.17L16.76 33.17L16.76 33.24L16.84 33.24L16.84 33.31L16.91 33.31L16.91 33.38L16.98 33.38L16.98 33.45L17.06 33.45L17.06 33.52L17.13 33.52L17.13 33.59L17.2 33.59L17.2 33.66L17.27 33.66L17.27 33.73L17.35 33.73L17.35 33.8L17.42 33.8L17.42 33.87L17.49 33.87L17.49 33.94L17.57 33.94L17.57 34.01L17.64 34.01L17.64 34.08L17.71 34.08L17.71 34.15L17.78 34.15L17.78 34.22L17.86 34.22L17.86 34.29L17.93 34.29L17.93 34.36L18 34.36L18 34.43L18.08 34.43L18.08 34.5L18.15 34.5L18.15 34.57L18.22 34.57L18.22 34.64L18.3 34.64L18.3 34.71L18.37 34.71L18.37 34.78L18.44 34.78L18.44 34.85L18.52 34.85L18.52 34.92L18.59 34.92L18.59 34.99L18.66 34.99L18.66 35.06L18.73 35.06L18.73 35.13L18.81 35.13L18.81 35.2L18.88 35.2L18.88 35.27L18.95 35.27L18.95 35.34L19.03 35.34L19.03 35.41L19.1 35.41L19.1 35.48L19.17 35.48L19.17 35.54L19.24 35.54L19.24 35.61L19.32 35.61L19.32 35.68L19.39 35.68L19.39 35.75L19.46 35.75L19.46 35.82L19.54 35.82L19.54 35.89L19.61 35.89L19.61 35.96L19.68 35.96L19.68 36.03L19.76 36.03L19.76 36.1L19.83 36.1L19.83 36.17L19.9 36.17L19.9 36.24L19.98 36.24L19.98 36.31L20.05 36.31L20.05 36.38L20.12 36.38L20.12 36.45L20.19 36.45L20.19 36.52L20.27 36.52L20.27 36.59L20.34 36.59L20.34 36.66L20.41 36.66L20.41 36.73L20.49 36.73L20.49 36.8L20.56 36.8L20.56 36.87L20.63 36.87L20.63 36.94L20.7 36.94L20.7 37L20.78 37L20.78 37.07L20.85 37.07L20.85 37.14L20.93 37.14L20.93 37.21L21 37.21L21 37.28L21.08 37.28L21.08 37.35L21.15 37.35L21.15 37.42L21.22 37.42L21.22 37.49L21.3 37.49L21.3 37.56L21.37 37.56L21.37 37.63L21.44 37.63L21.44 37.7L21.52 37.7L21.52 37.77L21.59 37.77L21.59 37.84L21.66 37.84L21.66 37.91L21.73 37.91L21.73 37.98L21.81 37.98L21.81 38.05L21.88 38.05L21.88 38.12L21.95 38.12L21.95 38.19L22.03 38.19L22.03 38.26L22.1 38.26L22.1 38.33L22.17 38.33L22.17 38.39L22.25 38.39L22.25 38.47L22.32 38.47L22.32 38.53L22.39 38.53L22.39 38.6L22.46 38.6L22.46 38.67L22.54 38.67L22.54 38.74L22.61 38.74L22.61 38.81L22.68 38.81L22.68 38.88L22.76 38.88L22.76 38.95L22.83 38.95L22.83 39.07L22.91 39.07L22.91 39.14L22.98 39.14L22.98 39.21L23.05 39.21L23.05 39.28L23.12 39.28L23.12 39.35L23.2 39.35L23.2 39.42L23.27 39.42L23.27 39.48L23.34 39.48L23.34 39.55L23.42 39.55L23.42 39.62L23.49 39.62L23.49 39.69L23.56 39.69L23.56 39.76L23.63 39.76L23.63 39.83L23.71 39.83L23.71 39.9L23.78 39.9L23.78 39.97L23.85 39.97L23.85 40.04L23.93 40.04L23.93 40.11L24 40.11L24 40.18L24.07 40.18L24.07 40.25L24.15 40.25L24.15 40.32L24.22 40.32L24.22 40.39L24.29 40.39L24.29 40.46L24.36 40.46L24.36 40.53L24.44 40.53L24.44 40.6L24.51 40.6L24.51 40.67L24.58 40.67L24.58 40.74L24.66 40.74L24.66 40.81L24.73 40.81L24.73 40.88L24.8 40.88L24.8 40.95L24.87 40.95L24.87 41.02L24.95 41.02L24.95 41.09L25.02 41.09L25.02 41.16L25.09 41.16L25.09 41.23L25.16 41.23L25.16 41.3L25.24 41.3L25.24 41.37L25.31 41.37L25.31 41.44L25.38 41.44L25.38 41.51L25.45 41.51L25.45 41.58L25.53 41.58L25.53 41.65L25.6 41.65L25.6 41.72L25.67 41.72L25.67 41.79L25.74 41.79L25.74 41.86L25.82 41.86L25.82 41.93L25.89 41.93L25.89 42L25.96 42L25.96 42.07L26.03 42.07L26.03 42.14L26.11 42.14L26.11 42.21L26.18 42.21L26.18 42.28L26.25 42.28L26.25 42.35L26.32 42.35L26.32 42.42L26.4 42.42L26.4 42.49L26.47 42.49L26.47 42.56L26.54 42.56L26.54 42.62L26.61 42.62L26.61 42.69L26.69 42.69L26.69 42.76L26.76 42.76L26.76 42.83L26.83 42.83L26.83 42.9L26.9 42.9L26.9 42.97L26.98 42.97L26.98 43.04L27.05 43.04L27.05 43.11L27.12 43.11L27.12 43.18L27.2 43.18L27.2 43.25L27.27 43.25L27.27 43.32L27.34 43.32L27.34 43.39L27.41 43.39L27.41 43.46L27.49 43.46L27.49 43.53L27.56 43.53L27.56 43.6L27.63 43.6L27.63 43.67L27.7 43.67L27.7 43.74L27.78 43.74L27.78 43.81L27.85 43.81L27.85 43.87L27.92 43.87L27.92 43.94L27.99 43.94L27.99 44.01L28.07 44.01L28.07 44.08L28.14 44.08L28.14 44.15L28.21 44.15L28.21 44.22L28.28 44.22L28.28 44.29L28.36 44.29L28.36 44.36L28.43 44.36L28.43 44.43L28.5 44.43L28.5 44.5L28.57 44.5L28.57 44.57L28.65 44.57L28.65 44.64L28.72 44.64L28.72 44.71L28.79 44.71L28.79 44.78L28.86 44.78L28.86 44.85L28.94 44.85L28.94 44.92L29.01 44.92L29.01 45L29.08 45L29.08 45.07L29.15 45.07L29.15 45.14L29.23 45.14L29.23 45.21L29.3 45.21L29.3 45.28L29.37 45.28L29.37 45.35L29.46 45.35L29.46 45.42L29.54 45.42L29.54 45.49L29.61 45.49L29.61 45.56L29.68 45.56L29.68 45.63L29.75 45.63L29.75 45.7L29.83 45.7L29.83 45.77L29.9 45.77L29.9 45.84L29.97 45.84L29.97 45.91L30.04 45.91L30.04 45.98L30.12 45.98L30.12 46.05L30.19 46.05L30.19 46.12L30.26 46.12L30.26 46.19L30.33 46.19L30.33 46.25L30.41 46.25L30.41 46.32L30.48 46.32L30.48 46.39L30.55 46.39L30.55 46.46L30.62 46.46L30.62 46.53L30.7 46.53L30.7 46.6L30.77 46.6L30.77 46.67L30.84 46.67L30.84 46.74L30.91 46.74L30.91 46.85L30.99 46.85L30.99 46.92L31.06 46.92L31.06 46.99L31.13 46.99L31.13 47.06L31.2 47.06L31.2 47.13L31.28 47.13L31.28 47.2L31.35 47.2L31.35 47.27L31.42 47.27L31.42 47.34L31.49 47.34L31.49 47.41L31.57 47.41L31.57 47.48L31.64 47.48L31.64 47.55L31.71 47.55L31.71 47.62L31.78 47.62L31.78 47.68L31.86 47.68L31.86 47.75L31.93 47.75L31.93 47.82L32 47.82L32 47.89L32.07 47.89L32.07 47.96L32.15 47.96L32.15 48.03L32.22 48.03L32.22 48.1L32.29 48.1L32.29 48.17L32.36 48.17L32.36 48.24L32.44 48.24L32.44 48.31L32.51 48.31L32.51 48.38L32.58 48.38L32.58 48.45L32.66 48.45L32.66 48.52L32.73 48.52L32.73 48.59L32.84 48.59L32.84 48.66L32.91 48.66L32.91 48.73L32.98 48.73L32.98 48.8L33.05 48.8L33.05 48.87L33.13 48.87L33.13 48.94L33.2 48.94L33.2 49.01L33.27 49.01L33.27 49.08L33.34 49.08L33.34 49.14L33.42 49.14L33.42 49.23L33.49 49.23L33.49 49.29L33.56 49.29L33.56 49.36L33.63 49.36L33.63 49.43L33.71 49.43L33.71 49.5L33.78 49.5L33.78 49.57L33.85 49.57L33.85 49.64L33.92 49.64L33.92 49.71L34 49.71L34 49.78L34.07 49.78L34.07 49.85L34.14 49.85L34.14 49.92L34.21 49.92L34.21 49.99L34.29 49.99L34.29 50.06L34.36 50.06L34.36 50.13L34.43 50.13L34.43 50.2L34.5 50.2L34.5 50.27L34.58 50.27L34.58 50.34L34.65 50.34L34.65 50.41L34.72 50.41L34.72 50.48L34.79 50.48L34.79 50.55L34.87 50.55L34.87 50.62L34.94 50.62L34.94 50.69L35.01 50.69L35.01 50.75L35.08 50.75L35.08 50.83L35.16 50.83L35.16 50.89L35.23 50.89L35.23 50.96L35.3 50.96L35.3 51.03L35.37 51.03L35.37 51.1L35.45 51.1L35.45 51.17L35.52 51.17L35.52 51.24L35.59 51.24L35.59 51.31L35.66 51.31L35.66 51.38L35.74 51.38L35.74 51.45L35.81 51.45L35.81 51.52L35.88 51.52L35.88 51.6L35.95 51.6L35.95 51.67L36.03 51.67L36.03 51.74L36.1 51.74L36.1 51.81L36.17 51.81L36.17 51.88L36.24 51.88L36.24 51.95L36.32 51.95L36.32 52.02L36.39 52.02L36.39 52.09L36.46 52.09L36.46 52.16L36.53 52.16L36.53 52.22L36.61 52.22L36.61 52.29L36.71 52.29L36.71 52.36L36.78 52.36L36.78 52.43L36.85 52.43L36.85 52.5L36.93 52.5L36.93 52.57L37 52.57L37 52.64L37.07 52.64L37.07 52.71L37.14 52.71L37.14 52.78L37.22 52.78L37.22 52.85L37.29 52.85L37.29 52.92L37.36 52.92L37.36 52.99L37.43 52.99L37.43 53.06L37.51 53.06L37.51 53.13L37.58 53.13L37.58 53.2L37.65 53.2L37.65 53.27L37.72 53.27L37.72 53.34L37.8 53.34L37.8 53.41L37.87 53.41L37.87 53.51L41.39 53.51L41.39 51.2L41.4 51.2L41.4 51.27L41.47 51.27L41.47 51.34L41.54 51.34L41.54 51.41L41.61 51.41L41.61 51.48L41.69 51.48L41.69 51.55L41.76 51.55L41.76 51.62L41.83 51.62L41.83 51.69L41.9 51.69L41.9 51.76L41.98 51.76L41.98 51.82L42.05 51.82L42.05 51.89L42.12 51.89L42.12 51.96L42.19 51.96L42.19 52.03L42.27 52.03L42.27 52.1L42.34 52.1L42.34 52.17L42.41 52.17L42.41 52.24L42.49 52.24L42.49 52.31L42.56 52.31L42.56 52.38L42.63 52.38L42.63 52.45L42.7 52.45L42.7 52.52L42.77 52.52L42.77 52.59L42.85 52.59L42.85 52.66L42.92 52.66L42.92 52.73L42.99 52.73L42.99 52.8L43.06 52.8L43.06 52.87L43.14 52.87L43.14 52.94L43.21 52.94L43.21 53.01L43.28 53.01L43.28 53.08L43.35 53.08L43.35 53.15L43.43 53.15L43.43 53.22L43.5 53.22L43.5 53.28L43.57 53.28L43.57 53.35L43.65 53.35L43.65 53.42L43.72 53.42L43.72 53.51L47.24 53.51L47.24 49.52L47.25 49.52L47.25 49.59L47.33 49.59L47.33 49.65L47.4 49.65L47.4 49.72L47.47 49.72L47.47 49.79L47.54 49.79L47.54 49.86L47.62 49.86L47.62 49.93L47.69 49.93L47.69 50L47.76 50L47.76 50.07L47.88 50.07L47.88 50.14L47.95 50.14L47.95 50.21L48.02 50.21L48.02 50.28L48.1 50.28L48.1 50.35L48.17 50.35L48.17 50.42L48.24 50.42L48.24 50.49L48.31 50.49L48.31 50.56L48.39 50.56L48.39 50.63L48.46 50.63L48.46 50.7L48.53 50.7L48.53 50.77L48.6 50.77L48.6 50.84L48.68 50.84L48.68 50.91L48.75 50.91L48.75 50.98L48.82 50.98L48.82 51.05L48.89 51.05L48.89 51.11L48.97 51.11L48.97 51.18L49.04 51.18L49.04 51.25L49.11 51.25L49.11 51.32L49.18 51.32L49.18 51.39L49.26 51.39L49.26 51.46L49.33 51.46L49.33 51.53L49.4 51.53L49.4 51.6L49.47 51.6L49.47 51.67L49.55 51.67L49.55 51.74L49.62 51.74L49.62 51.81L49.71 51.81L49.71 51.88L49.78 51.88L49.78 51.95L49.85 51.95L49.85 52.02L49.92 52.02L49.92 52.09L50 52.09L50 52.16L50.07 52.16L50.07 52.23L50.14 52.23L50.14 52.3L50.22 52.3L50.22 52.37L50.29 52.37L50.29 52.44L50.36 52.44L50.36 52.51L50.43 52.51L50.43 52.57L50.51 52.57L50.51 52.64L50.58 52.64L50.58 52.71L50.65 52.71L50.65 52.78L50.72 52.78L50.72 52.85L50.79 52.85L50.79 52.92L50.87 52.92L50.87 52.99L50.94 52.99L50.94 53.06L51.01 53.06L51.01 53.13L51.09 53.13L51.09 53.2L51.16 53.2L51.16 53.27L51.23 53.27L51.23 53.34L51.3 53.34L51.3 53.41L51.38 53.41L51.38 53.51L54.9 53.51C54.9 49.74 54.9 47.64 54.9 47.23C54.91 45.3 54.74 43.76 53.71 42.89C53.69 42.87 53.67 42.84 53.64 42.82Z" id="dftLhHEDG"></path><linearGradient id="gradientc3NqHL8VnH" gradientUnits="userSpaceOnUse" x1="53" y1="55.37" x2="14.31" y2="17.68"><stop style="stop-color: #000000;stop-opacity: 0" offset="52.55%"></stop><stop style="stop-color: #000000;stop-opacity: 0.1133" offset="57.92%"></stop><stop style="stop-color: #000000;stop-opacity: 1" offset="100%"></stop></linearGradient><path d="M25.28 20.97L25.28 22.69C25.28 22.69 25.28 22.69 25.28 22.69C25.76 21.79 27.02 20.97 28.8 20.97C32.49 20.97 32.9 23.04 32.9 26.12C32.9 26.54 32.9 28.63 32.9 32.41L29.38 32.41C29.38 28.98 29.38 27.07 29.38 26.69C29.38 25.36 29.49 23.83 27.62 23.83C25.28 23.83 25.28 25.2 25.28 26.69C25.28 27.07 25.28 28.98 25.28 32.41L21.75 32.41L21.76 20.97L21.76 20.97L25.28 20.97Z" id="b1PIhafgqy"></path><path d="M19.41 20.97C19.41 20.97 19.41 20.97 19.41 20.97C19.41 27.83 19.41 31.64 19.41 32.41C19.41 32.41 19.41 32.41 19.41 32.41C17.3 32.41 16.12 32.41 15.89 32.41C15.89 32.41 15.89 32.41 15.89 32.41C15.89 25.55 15.89 21.73 15.89 20.97C15.89 20.97 15.89 20.97 15.89 20.97C18 20.97 19.17 20.97 19.41 20.97Z" id="dDZIYTFmW"></path><path d="M17.65 15.26C16.51 15.26 15.59 16.15 15.59 17.26C15.59 18.36 16.51 19.26 17.65 19.26C18.78 19.26 19.7 18.36 19.7 17.26C19.7 16.15 18.78 15.26 17.65 15.26Z" id="apa0p4UCS"></path></defs><g><g><g><use xlink:href="#a43eGYDv1A" opacity="1" fill="url(#gradienta29LW8MFG3)"></use><g><use xlink:href="#a43eGYDv1A" opacity="1" fill-opacity="0" stroke="#000000" stroke-width="1" stroke-opacity="0"></use></g></g><g><use xlink:href="#bcX6rIetr" opacity="1" fill="#0e76a8" fill-opacity="1"></use><g><use xlink:href="#bcX6rIetr" opacity="1" fill-opacity="0" stroke="#000000" stroke-width="1" stroke-opacity="0"></use></g></g><g><use xlink:href="#dftLhHEDG" opacity="1" fill="url(#gradientc3NqHL8VnH)"></use><g><use xlink:href="#dftLhHEDG" opacity="1" fill-opacity="0" stroke="#000000" stroke-width="1" stroke-opacity="0"></use></g></g><g><use xlink:href="#b1PIhafgqy" opacity="1" fill="#ffffff" fill-opacity="1"></use><g><use xlink:href="#b1PIhafgqy" opacity="1" fill-opacity="0" stroke="#000000" stroke-width="1" stroke-opacity="0"></use></g></g><g><use xlink:href="#dDZIYTFmW" opacity="1" fill="#ffffff" fill-opacity="1"></use><g><use xlink:href="#dDZIYTFmW" opacity="1" fill-opacity="0" stroke="#000000" stroke-width="1" stroke-opacity="0"></use></g></g><g><use xlink:href="#apa0p4UCS" opacity="1" fill="#ffffff" fill-opacity="1"></use><g><use xlink:href="#apa0p4UCS" opacity="1" fill-opacity="0" stroke="#000000" stroke-width="1" stroke-opacity="0"></use></g></g></g></g></svg>