<?xml version="1.0" encoding="UTF-8" standalone="no"?>
<!DOCTYPE svg PUBLIC "-//W3C//DTD SVG 1.1//EN" "http://www.w3.org/Graphics/SVG/1.1/DTD/svg11.dtd">
<svg version="1.1" xmlns="http://www.w3.org/2000/svg" xmlns:xlink="http://www.w3.org/1999/xlink" preserveAspectRatio="xMidYMid meet" viewBox="0 0 640 640" width="640" height="640"><defs><path d="M32 8C18.75 8 8 18.75 8 32C8 45.25 18.75 56 32 56C45.25 56 56 45.25 56 32C56 18.75 45.25 8 32 8Z" id="f1j66Hv5Lx"></path><path d="M33.52 27.67L33.52 30.27C33.52 30.27 33.52 30.27 33.52 30.27C34.24 28.91 36.1 27.67 38.72 27.67C44.17 27.67 44.78 30.8 44.78 35.47C44.78 36.1 44.78 39.28 44.78 45L39.58 45C39.58 39.8 39.58 36.91 39.58 36.33C39.58 34.32 39.75 32 36.98 32C33.52 32 33.52 34.07 33.52 36.33C33.52 36.91 33.52 39.8 33.52 45L28.32 45L28.32 27.67L28.32 27.67L33.52 27.67Z" id="a15yK5b3BS"></path><path d="M24.85 27.67C24.85 27.67 24.85 27.67 24.85 27.67C24.85 38.07 24.85 43.84 24.85 45C24.85 45 24.85 45 24.85 45C21.73 45 20 45 19.65 45C19.65 45 19.65 45 19.65 45C19.65 34.6 19.65 28.82 19.65 27.67C19.65 27.67 19.65 27.67 19.65 27.67C22.77 27.67 24.5 27.67 24.85 27.67Z" id="e2uQ52K9eu"></path><path d="M22.25 19C20.57 19 19.22 20.36 19.22 22.03C19.22 23.71 20.57 25.07 22.25 25.07C23.93 25.07 25.28 23.71 25.28 22.03C25.28 20.36 23.93 19 22.25 19Z" id="iSHPCXABd"></path></defs><g><g><g><use xlink:href="#f1j66Hv5Lx" opacity="1" fill="#489458" fill-opacity="1"></use><g><use xlink:href="#f1j66Hv5Lx" opacity="1" fill-opacity="0" stroke="#000000" stroke-width="1" stroke-opacity="0"></use></g></g><g><use xlink:href="#a15yK5b3BS" opacity="1" fill="#ffffff" fill-opacity="1"></use><g><use xlink:href="#a15yK5b3BS" opacity="1" fill-opacity="0" stroke="#000000" stroke-width="1" stroke-opacity="0"></use></g></g><g><use xlink:href="#e2uQ52K9eu" opacity="1" fill="#ffffff" fill-opacity="1"></use><g><use xlink:href="#e2uQ52K9eu" opacity="1" fill-opacity="0" stroke="#000000" stroke-width="1" stroke-opacity="0"></use></g></g><g><use xlink:href="#iSHPCXABd" opacity="1" fill="#ffffff" fill-opacity="1"></use><g><use xlink:href="#iSHPCXABd" opacity="1" fill-opacity="0" stroke="#000000" stroke-width="1" stroke-opacity="0"></use></g></g></g></g></svg>