<?xml version="1.0" encoding="UTF-8" standalone="no"?>
<!DOCTYPE svg PUBLIC "-//W3C//DTD SVG 1.1//EN" "http://www.w3.org/Graphics/SVG/1.1/DTD/svg11.dtd">
<svg version="1.1" xmlns="http://www.w3.org/2000/svg" xmlns:xlink="http://www.w3.org/1999/xlink" preserveAspectRatio="xMidYMid meet" viewBox="0 0 640 640" width="640" height="640"><defs><path d="M324.55 20C150.03 19.69 8.3 157.58 8 327.98C7.7 498.38 148.93 636.77 323.45 637.08C497.97 637.39 639.7 499.5 640 329.1C640.3 158.7 499.07 20.31 324.55 20Z" id="dpOEFikkC"></path><path d="M343.99 272.82L343.99 306.26C343.99 306.26 343.99 306.26 343.99 306.26C353.45 288.75 377.96 272.82 412.44 272.82C484.23 272.83 492.31 313.13 492.31 373.12C492.31 381.29 492.31 422.14 492.3 495.67L423.84 495.67C423.84 428.81 423.84 391.67 423.84 384.25C423.84 358.42 425.99 328.54 389.6 328.54C343.95 328.54 343.95 355.19 343.95 384.24C343.95 391.67 343.94 428.81 343.94 495.67L275.48 495.66L275.51 272.82L275.51 272.82L343.99 272.82Z" id="b15XeHhlUW"></path><path d="M229.96 272.66C229.96 272.66 229.96 272.66 229.96 272.66C229.72 406.36 229.59 480.64 229.56 495.5C229.56 495.5 229.56 495.5 229.56 495.5C188.48 495.42 165.66 495.38 161.1 495.38C161.1 495.38 161.1 495.38 161.1 495.38C161.33 361.67 161.46 287.39 161.49 272.53C161.49 272.53 161.49 272.53 161.49 272.53C202.57 272.61 225.39 272.65 229.96 272.66Z" id="eP1S2Vfw"></path><path d="M195.92 161.19C173.87 161.15 155.96 178.57 155.92 200.11C155.88 221.64 173.73 239.13 195.78 239.17C217.84 239.21 235.75 221.78 235.79 200.25C235.83 178.71 217.98 161.23 195.92 161.19Z" id="bjdVtPCf0"></path></defs><g><g><g transform="matrix(0.9999984769132877 -0.0017453283658983088 0.0017453283658983088 0.9999984769132877 -0.5729155246115738 0.5659867844327096)" vector-effect="non-scaling-stroke"><use xlink:href="#dpOEFikkC" opacity="1" fill="#489458" fill-opacity="1"></use><g><use xlink:href="#dpOEFikkC" opacity="1" fill-opacity="0" stroke="#000000" stroke-width="1" stroke-opacity="0"></use></g></g><g><use xlink:href="#b15XeHhlUW" opacity="1" fill="#ffffff" fill-opacity="1"></use><g><use xlink:href="#b15XeHhlUW" opacity="1" fill-opacity="0" stroke="#000000" stroke-width="1" stroke-opacity="0"></use></g></g><g><use xlink:href="#eP1S2Vfw" opacity="1" fill="#ffffff" fill-opacity="1"></use><g><use xlink:href="#eP1S2Vfw" opacity="1" fill-opacity="0" stroke="#000000" stroke-width="1" stroke-opacity="0"></use></g></g><g><use xlink:href="#bjdVtPCf0" opacity="1" fill="#ffffff" fill-opacity="1"></use><g><use xlink:href="#bjdVtPCf0" opacity="1" fill-opacity="0" stroke="#000000" stroke-width="1" stroke-opacity="0"></use></g></g></g></g></svg>