<?xml version="1.0" encoding="UTF-8" standalone="no"?>
<!DOCTYPE svg PUBLIC "-//W3C//DTD SVG 1.1//EN" "http://www.w3.org/Graphics/SVG/1.1/DTD/svg11.dtd">
<svg version="1.1" xmlns="http://www.w3.org/2000/svg" xmlns:xlink="http://www.w3.org/1999/xlink" preserveAspectRatio="xMidYMid meet" viewBox="0 0 640 640" width="625" height="625"><defs><path d="M48.45 23.9L37.6 13.07L13.1 37.53L23.94 48.37L48.45 48.37L48.45 23.9Z" id="a1iWk6dQh"></path><linearGradient id="gradientb1dlB0V9xB" gradientUnits="userSpaceOnUse" x1="48.45" y1="48.37" x2="25.35" y2="25.3"><stop style="stop-color: #ffffff;stop-opacity: 0" offset="31.630000000000003%"></stop><stop style="stop-color: #e9e9e9;stop-opacity: 0.0504" offset="35.08%"></stop><stop style="stop-color: #acacac;stop-opacity: 0.2018" offset="45.43%"></stop><stop style="stop-color: #787878;stop-opacity: 0.3523" offset="55.720000000000006%"></stop><stop style="stop-color: #4d4d4d;stop-opacity: 0.4981" offset="65.69%"></stop><stop style="stop-color: #2b2b2b;stop-opacity: 0.6385" offset="75.28%"></stop><stop style="stop-color: #131313;stop-opacity: 0.7719" offset="84.41%"></stop><stop style="stop-color: #050505;stop-opacity: 0.8956" offset="92.86%"></stop><stop style="stop-color: #000000;stop-opacity: 1" offset="100%"></stop></linearGradient><path d="M25.32 8C15.76 8 8 15.75 8 25.3C8 34.86 15.76 42.6 25.32 42.6C34.89 42.6 42.65 34.86 42.65 25.3C42.65 15.75 34.89 8 25.32 8Z" id="d8LKOPbCU"></path><path d="M56.66 46.05C56.63 46.03 56.61 46 56.58 45.97C56.56 45.95 56.53 45.92 56.51 45.9C56.48 45.87 56.46 45.85 56.43 45.82C56.4 45.8 56.38 45.77 56.35 45.75C56.32 45.72 56.3 45.69 56.27 45.67C56.25 45.65 56.22 45.62 56.2 45.6C56.17 45.57 56.15 45.54 56.12 45.52C56.09 45.49 56.07 45.46 56.04 45.44C56.01 45.42 55.99 45.39 55.96 45.37C55.94 45.34 55.91 45.31 55.88 45.29C55.86 45.26 55.84 45.24 55.81 45.21C55.78 45.19 55.76 45.16 55.73 45.14C55.7 45.11 55.68 45.08 55.65 45.06C55.63 45.04 55.6 45.01 55.58 44.98C55.55 44.96 55.53 44.93 55.5 44.91C55.47 44.88 55.45 44.86 55.42 44.83C55.39 44.81 55.37 44.78 55.34 44.75C55.32 44.73 55.29 44.7 55.27 44.68C55.24 44.65 55.22 44.63 55.19 44.6C55.16 44.58 55.14 44.55 55.11 44.53C55.09 44.5 55.06 44.47 55.03 44.45C55.01 44.43 54.98 44.4 54.96 44.37C54.93 44.35 54.91 44.32 54.88 44.3C54.85 44.27 54.83 44.24 54.8 44.22C54.77 44.2 54.75 44.17 54.73 44.15C54.7 44.12 54.67 44.09 54.64 44.07C54.62 44.04 54.6 44.02 54.57 43.99C54.54 43.97 54.52 43.94 54.49 43.92C54.46 43.89 54.44 43.86 54.41 43.84C54.39 43.81 54.36 43.79 54.34 43.76C54.31 43.74 54.29 43.71 54.26 43.69C54.23 43.66 54.21 43.63 54.18 43.61C54.15 43.59 54.13 43.56 54.1 43.53C54.08 43.51 54.05 43.48 54.03 43.46C54 43.43 53.98 43.41 53.95 43.38C53.92 43.36 53.9 43.33 53.87 43.31C53.84 43.28 53.82 43.25 53.79 43.23C53.77 43.21 53.74 43.18 53.71 43.15C53.69 43.13 53.67 43.1 53.64 43.08C53.61 43.05 53.59 43.02 53.56 43C53.53 42.98 53.51 42.95 53.48 42.93C53.46 42.9 53.43 42.87 53.41 42.85C53.38 42.82 53.36 42.8 53.33 42.77C53.3 42.75 53.28 42.72 53.25 42.7C53.22 42.67 53.2 42.64 53.18 42.62C53.15 42.6 53.13 42.57 53.1 42.55C53.07 42.52 53.05 42.49 53.02 42.47C52.99 42.44 52.97 42.42 52.94 42.39C52.92 42.37 52.89 42.34 52.86 42.32C52.84 42.29 52.81 42.26 52.79 42.24C52.76 42.22 52.74 42.19 52.71 42.16C52.68 42.14 52.66 42.11 52.63 42.09C52.61 42.06 52.58 42.03 52.55 42.01C52.53 41.99 52.51 41.96 52.48 41.94C52.45 41.91 52.43 41.88 52.4 41.86C52.37 41.83 52.35 41.81 52.32 41.78C52.3 41.76 52.27 41.73 52.25 41.71C52.22 41.68 52.2 41.65 52.17 41.63C52.14 41.6 52.12 41.58 52.09 41.55C52.06 41.53 52.04 41.5 52.01 41.48C51.99 41.45 51.96 41.42 51.93 41.4C51.91 41.38 51.89 41.35 51.86 41.32C51.83 41.3 51.81 41.27 51.78 41.25C51.75 41.22 51.73 41.2 51.7 41.17C51.68 41.15 51.65 41.12 51.62 41.09C51.6 41.07 51.58 41.04 51.55 41.02C51.52 40.99 51.5 40.97 51.47 40.94C51.44 40.92 51.42 40.89 51.39 40.87C51.37 40.84 51.34 40.81 51.32 40.79C51.29 40.76 51.27 40.74 51.24 40.71C51.21 40.69 51.19 40.66 51.16 40.64C51.14 40.61 51.11 40.58 51.08 40.56C51.06 40.54 51.03 40.51 51.01 40.48C50.98 40.46 50.96 40.43 50.93 40.41C50.9 40.38 50.88 40.35 50.85 40.33C50.82 40.31 50.8 40.28 50.77 40.26C50.75 40.23 50.72 40.2 50.69 40.18C50.67 40.15 50.65 40.13 50.62 40.1C50.59 40.08 50.57 40.05 50.54 40.03C50.52 40 50.49 39.97 50.46 39.95C50.44 39.92 50.41 39.9 50.39 39.87C50.36 39.85 50.34 39.82 50.31 39.8C50.28 39.77 50.26 39.75 50.23 39.72C50.21 39.7 50.18 39.67 50.15 39.64C50.13 39.62 50.11 39.59 50.08 39.57C50.05 39.54 50.03 39.52 50 39.49C49.97 39.47 49.95 39.44 49.92 39.42C49.9 39.39 49.87 39.37 49.85 39.34C49.82 39.32 49.79 39.29 49.76 39.26C49.74 39.24 49.72 39.21 49.69 39.19C49.66 39.16 49.64 39.13 49.61 39.11C49.59 39.09 49.56 39.06 49.54 39.04C49.51 39.01 49.48 38.98 49.46 38.96C49.43 38.93 49.41 38.91 49.38 38.88C49.35 38.86 49.33 38.83 49.3 38.81C49.28 38.78 49.25 38.75 49.22 38.73C49.2 38.7 49.18 38.68 49.15 38.65C49.12 38.63 49.1 38.6 49.07 38.58C49.04 38.55 49.02 38.52 48.99 38.5C48.97 38.48 48.94 38.45 48.91 38.43C48.89 38.4 48.87 38.37 48.84 38.35C48.81 38.32 48.79 38.3 48.76 38.27C48.73 38.25 48.71 38.22 48.68 38.2C48.66 38.17 48.63 38.15 48.61 38.12C48.58 38.09 48.55 38.07 48.52 38.04C48.5 38.02 48.48 37.99 48.45 37.97C48.42 37.94 48.4 37.92 48.37 37.89C48.35 37.87 48.32 37.84 48.3 37.82C48.27 37.79 48.25 37.76 48.22 37.74C48.19 37.71 48.17 37.69 48.14 37.66C48.11 37.64 48.09 37.61 48.06 37.59C48.04 37.56 48.01 37.53 47.98 37.51C47.96 37.49 47.94 37.46 47.91 37.43C47.88 37.41 47.86 37.38 47.83 37.36C47.8 37.33 47.78 37.31 47.75 37.28C47.73 37.26 47.7 37.23 47.68 37.21C47.65 37.18 47.63 37.15 47.6 37.13C47.57 37.1 47.55 37.08 47.52 37.05C47.49 37.03 47.47 37 47.44 36.98C47.42 36.95 47.39 36.92 47.36 36.9C47.34 36.88 47.32 36.85 47.29 36.83C47.26 36.8 47.24 36.77 47.21 36.75C47.18 36.72 47.16 36.7 47.13 36.67C47.11 36.65 47.08 36.62 47.05 36.59C47.03 36.57 47.01 36.54 46.98 36.52C46.95 36.5 46.93 36.47 46.9 36.44C46.87 36.42 46.85 36.39 46.82 36.37C46.8 36.34 46.77 36.32 46.75 36.29C46.72 36.27 46.7 36.24 46.67 36.22C46.64 36.19 46.62 36.16 46.59 36.14C46.56 36.11 46.54 36.09 46.51 36.06C46.49 36.04 46.47 36.01 46.44 35.99C46.41 35.96 46.39 35.93 46.36 35.91C46.33 35.88 46.31 35.86 46.28 35.83C46.25 35.81 46.23 35.78 46.2 35.76C46.18 35.73 46.15 35.71 46.13 35.68C46.1 35.66 46.08 35.63 46.05 35.6C46.02 35.58 46 35.55 45.97 35.53C45.94 35.5 45.92 35.48 45.89 35.45C45.87 35.43 45.84 35.4 45.82 35.38C45.79 35.35 45.77 35.32 45.74 35.3C45.71 35.27 45.69 35.25 45.66 35.22C45.63 35.2 45.61 35.17 45.58 35.15C45.56 35.12 45.54 35.1 45.51 35.07C45.48 35.05 45.46 35.02 45.43 34.99C45.4 34.97 45.38 34.94 45.35 34.92C45.32 34.89 45.3 34.87 45.27 34.84C45.25 34.82 45.23 34.79 45.2 34.77C45.17 34.74 45.15 34.71 45.12 34.69C45.09 34.67 45.07 34.64 45.04 34.61C45.02 34.59 44.99 34.56 44.97 34.54C44.94 34.51 44.92 34.49 44.89 34.46C44.86 34.44 44.84 34.41 44.81 34.38C44.78 34.36 44.76 34.33 44.73 34.31C44.71 34.29 44.68 34.26 44.66 34.23C44.63 34.21 44.61 34.18 44.58 34.16C44.55 34.13 44.53 34.11 44.5 34.08C44.48 34.06 44.45 34.03 44.42 34.01C44.4 33.98 44.37 33.95 44.34 33.93C44.32 33.91 44.3 33.88 44.27 33.86C44.24 33.83 44.22 33.8 44.19 33.78C44.16 33.75 44.14 33.72 44.11 33.7C44.09 33.68 44.06 33.65 44.04 33.62C44.01 33.6 43.99 33.57 43.96 33.55C43.93 33.52 43.91 33.5 43.88 33.47C43.85 33.45 43.83 33.42 43.8 33.4C43.78 33.37 43.76 33.35 43.73 33.32C43.7 33.3 43.68 33.27 43.65 33.24C43.62 33.22 43.6 33.19 43.57 33.17C43.55 33.14 43.52 33.12 43.49 33.09C43.47 33.07 43.44 33.04 43.41 33.01C43.39 32.99 43.37 32.96 43.34 32.94C43.31 32.91 43.29 32.89 43.26 32.86C43.23 32.84 43.21 32.81 43.18 32.79C43.16 32.76 43.13 32.73 43.1 32.71C43.08 32.68 43.06 32.66 43.03 32.63C43 32.61 42.98 32.58 42.95 32.55C42.92 32.53 42.9 32.5 42.87 32.48C42.85 32.45 42.82 32.43 42.8 32.4C42.77 32.38 42.75 32.35 42.72 32.33C42.69 32.3 42.67 32.27 42.64 32.25C42.61 32.22 42.59 32.2 42.56 32.17C42.54 32.15 42.51 32.12 42.49 32.1C42.46 32.07 42.44 32.05 42.41 32.02C42.38 32 42.36 31.97 42.33 31.95C42.31 31.92 42.28 31.89 42.25 31.87C42.23 31.84 42.2 31.82 42.18 31.79C42.15 31.77 42.13 31.74 42.1 31.72C42.07 31.69 42.05 31.66 42.02 31.64C41.99 31.61 41.97 31.59 41.94 31.56C41.92 31.54 41.89 31.51 41.87 31.49C41.84 31.46 41.82 31.44 41.79 31.41C41.76 31.39 41.74 31.36 41.71 31.34C41.69 31.31 41.66 31.28 41.64 31.26C41.61 31.24 41.59 31.21 41.56 31.18C41.53 31.16 41.51 31.13 41.48 31.11C41.45 31.08 41.43 31.05 41.4 31.03C41.38 31.01 41.35 30.98 41.32 30.95C41.3 30.93 41.28 30.9 41.25 30.88C41.22 30.85 41.2 30.83 41.17 30.8C41.14 30.78 41.12 30.75 41.09 30.73C41.07 30.7 41.04 30.67 41.02 30.65C40.99 30.63 40.97 30.6 40.94 30.57C40.91 30.55 40.89 30.52 40.86 30.5C40.84 30.47 40.81 30.45 40.78 30.42C40.76 30.4 40.73 30.37 40.71 30.34C40.68 30.32 40.66 30.29 40.63 30.27C40.6 30.24 40.58 30.22 40.55 30.19C40.53 30.17 40.5 30.14 40.47 30.12C40.45 30.09 40.43 30.07 40.4 30.04C40.37 30.02 40.35 29.99 40.32 29.96C40.29 29.94 40.27 29.91 40.24 29.89C40.22 29.86 40.19 29.84 40.17 29.81C40.14 29.79 40.11 29.76 40.09 29.73C40.06 29.71 40.04 29.68 40.01 29.66C39.98 29.63 39.96 29.61 39.93 29.58C39.91 29.56 39.88 29.53 39.86 29.5C39.83 29.48 39.81 29.45 39.78 29.43C39.75 29.4 39.73 29.38 39.7 29.35C39.67 29.33 39.65 29.3 39.62 29.28C39.6 29.25 39.57 29.22 39.54 29.2C39.52 29.17 39.49 29.15 39.47 29.12C39.44 29.1 39.42 29.07 39.39 29.05C39.36 29.02 39.34 28.99 39.31 28.97C39.28 28.95 39.26 28.92 39.24 28.9C39.21 28.87 39.18 28.84 39.15 28.81C39.13 28.79 39.11 28.77 39.08 28.74C39.05 28.72 39.03 28.69 39 28.66C38.97 28.64 38.95 28.61 38.92 28.59C38.89 28.56 38.87 28.53 38.84 28.51C38.82 28.48 38.79 28.46 38.77 28.44C38.74 28.41 38.72 28.38 38.69 28.36C38.66 28.33 38.64 28.3 38.61 28.28C38.58 28.26 38.56 28.23 38.53 28.21C38.51 28.18 38.48 28.15 38.45 28.13C38.43 28.1 38.41 28.08 38.38 28.05C38.35 28.03 38.33 28 38.3 27.98C38.27 27.95 38.25 27.92 38.22 27.9C38.2 27.88 38.17 27.85 38.15 27.82C38.12 27.8 38.1 27.77 38.07 27.75C38.04 27.72 38.02 27.69 37.99 27.67C37.96 27.65 37.94 27.62 37.91 27.59C37.89 27.57 37.86 27.54 37.84 27.52C37.81 27.49 37.79 27.47 37.76 27.44C37.73 27.42 37.71 27.39 37.68 27.37C37.66 27.34 37.63 27.31 37.6 27.29C37.58 27.26 37.55 27.24 37.53 27.21C37.5 27.19 37.48 27.16 37.45 27.14C37.42 27.11 37.4 27.08 37.37 27.06C37.34 27.04 37.32 27.01 37.29 26.99C37.27 26.96 37.24 26.93 37.21 26.91C37.19 26.88 37.16 26.86 37.14 26.83C37.11 26.8 37.09 26.78 37.06 26.75C37.03 26.73 37.01 26.7 36.98 26.68C36.96 26.65 36.93 26.63 36.9 26.6C36.88 26.58 36.86 26.55 36.83 26.53C36.8 26.5 36.78 26.47 36.75 26.45C36.72 26.42 36.7 26.4 36.67 26.37C36.65 26.35 36.62 26.32 36.6 26.29C36.57 26.27 36.54 26.24 36.52 26.22C36.49 26.2 36.47 26.17 36.44 26.14C36.42 26.12 36.39 26.09 36.36 26.07C36.34 26.04 36.31 26.01 36.29 25.99C36.26 25.97 36.24 25.94 36.21 25.92C36.18 25.89 36.16 25.86 36.13 25.84C36.11 25.81 36.08 25.79 36.05 25.76C36.03 25.74 36.01 25.71 35.98 25.69C35.95 25.66 35.93 25.63 35.9 25.61C35.87 25.58 35.85 25.56 35.82 25.53C35.8 25.51 35.77 25.48 35.74 25.46C35.72 25.43 35.7 25.4 35.67 25.38C35.64 25.36 35.62 25.33 35.59 25.3C35.56 25.28 35.54 25.25 35.51 25.23C35.49 25.2 35.46 25.18 35.44 25.15C35.41 25.13 35.39 25.1 35.36 25.07C35.33 25.05 35.31 25.02 35.28 25C35.25 24.97 35.23 24.94 35.2 24.92C35.18 24.9 35.15 24.87 35.13 24.85C35.1 24.82 35.08 24.79 35.05 24.77C35.02 24.74 35 24.72 34.97 24.69C34.94 24.67 34.92 24.64 34.89 24.61C34.87 24.59 34.84 24.56 34.82 24.54C34.79 24.51 34.77 24.49 34.74 24.46C34.71 24.44 34.69 24.41 34.66 24.38C34.63 24.36 34.61 24.33 34.58 24.31C34.56 24.28 34.53 24.26 34.5 24.23C34.48 24.21 34.46 24.18 34.43 24.16C34.4 24.13 34.38 24.11 34.35 24.08C34.33 24.06 34.3 24.03 34.27 24C34.25 23.98 34.22 23.95 34.2 23.93C34.17 23.9 34.15 23.87 34.12 23.85C34.09 23.82 34.07 23.8 34.04 23.77C34.01 23.75 33.99 23.72 33.96 23.7C33.94 23.67 33.91 23.64 33.88 23.62C33.86 23.59 33.84 23.57 33.81 23.54C33.78 23.52 33.76 23.49 33.73 23.47C33.7 23.44 33.68 23.42 33.65 23.39C33.63 23.37 33.6 23.34 33.58 23.32C33.55 23.29 33.53 23.26 33.5 23.24C32.85 22.62 31.85 22.28 30.32 22.28C29.1 22.28 28.11 22.65 27.42 23.18C27.42 23.17 27.42 23.14 27.42 23.07L27.34 23.07L27.34 23L27.27 23L27.27 22.92L27.04 22.92L27.04 22.84L26.97 22.84L26.97 22.77L26.89 22.77L26.89 22.69L26.81 22.69L26.81 22.61L26.73 22.61L26.73 22.54L26.66 22.54L26.66 22.46L26.58 22.46L26.58 22.39L26.5 22.39L26.5 22.31L26.42 22.31L26.42 22.23C25.89 22.23 25.6 22.23 25.54 22.23C25.52 22.22 25.5 22.2 25.48 22.18C25.46 22.16 25.43 22.13 25.4 22.11C25.38 22.08 25.35 22.06 25.33 22.03C25.3 22 25.27 21.98 25.25 21.95C25.22 21.93 25.2 21.9 25.17 21.88C25.14 21.85 25.12 21.83 25.09 21.8C25.07 21.78 25.04 21.75 25.01 21.73C24.99 21.7 24.96 21.67 24.94 21.65C24.91 21.62 24.89 21.6 24.86 21.57C24.83 21.55 24.81 21.52 24.78 21.5C24.76 21.47 24.73 21.44 24.7 21.42C24.68 21.39 24.65 21.37 24.62 21.34C24.6 21.32 24.57 21.29 24.55 21.27C24.52 21.24 24.5 21.21 24.47 21.19C24.44 21.16 24.42 21.14 24.39 21.11C24.37 21.09 24.34 21.06 24.31 21.04C24.29 21.01 24.26 20.99 24.24 20.96C24.21 20.93 24.18 20.91 24.16 20.88C24.13 20.86 24.11 20.83 24.08 20.81C24.06 20.78 24.03 20.76 24 20.73C23.98 20.7 23.95 20.68 23.93 20.65C23.9 20.63 23.87 20.6 23.85 20.58C23.82 20.55 23.8 20.53 23.77 20.5C23.74 20.47 23.72 20.45 23.69 20.42C23.67 20.4 23.64 20.37 23.61 20.35C23.59 20.32 23.56 20.3 23.54 20.27C23.51 20.24 23.48 20.22 23.46 20.19C23.43 20.17 23.41 20.14 23.38 20.12C23.35 20.09 23.33 20.07 23.3 20.04C23.28 20.01 23.25 19.99 23.22 19.96C23.2 19.94 23.17 19.91 23.15 19.89C23.12 19.86 23.09 19.84 23.07 19.81C23.04 19.79 23.02 19.76 22.99 19.74C22.96 19.71 22.94 19.68 22.91 19.66C22.89 19.63 22.86 19.61 22.84 19.58C22.81 19.56 22.78 19.53 22.76 19.51C22.73 19.48 22.71 19.45 22.68 19.43C22.66 19.4 22.63 19.38 22.6 19.35C22.58 19.33 22.55 19.3 22.52 19.28C22.5 19.25 22.47 19.22 22.45 19.2C22.42 19.17 22.4 19.15 22.37 19.12C22.34 19.1 22.32 19.07 22.29 19.05C22.27 19.02 22.24 18.99 22.21 18.97C22.19 18.94 22.16 18.92 22.14 18.89C22.11 18.87 22.08 18.84 22.06 18.82C22.03 18.79 22.01 18.77 21.98 18.74C21.95 18.71 21.93 18.69 21.9 18.66C21.88 18.64 21.85 18.61 21.82 18.59C21.8 18.56 21.77 18.53 21.75 18.51C21.72 18.48 21.7 18.46 21.67 18.43C21.64 18.41 21.62 18.38 21.59 18.36C21.57 18.33 21.54 18.31 21.51 18.28C21.49 18.25 21.46 18.23 21.44 18.2C21.41 18.18 21.38 18.15 21.36 18.13C21.33 18.1 21.31 18.08 21.28 18.05C21.25 18.03 21.23 18 21.2 17.97C21.18 17.95 21.15 17.92 21.12 17.9C21.1 17.87 21.07 17.85 21.05 17.82C21.02 17.8 21 17.77 20.97 17.74C20.94 17.72 20.92 17.69 20.89 17.67C20.87 17.64 20.84 17.62 20.81 17.59C20.79 17.57 20.76 17.54 20.74 17.52C20.71 17.49 20.68 17.47 20.66 17.44C20.63 17.41 20.61 17.39 20.58 17.36C20.55 17.34 20.53 17.31 20.5 17.29C20.48 17.26 20.45 17.24 20.42 17.21C20.4 17.19 20.37 17.16 20.35 17.14C20.32 17.11 20.29 17.08 20.27 17.06C20.24 17.03 20.22 17.01 20.19 16.98C20.16 16.96 20.14 16.93 20.11 16.91C20.09 16.88 20.06 16.86 20.04 16.83C20.01 16.8 19.98 16.78 19.96 16.75C19.93 16.73 19.91 16.7 19.88 16.68C19.47 16.19 18.91 15.93 18.29 15.93C17.08 15.93 16.1 16.91 16.1 18.12C16.1 18.74 16.36 19.3 16.78 19.7C16.81 19.73 16.84 19.75 16.86 19.78C16.89 19.8 16.91 19.83 16.94 19.85C16.97 19.88 16.99 19.91 17.02 19.93C17.04 19.96 17.07 19.98 17.1 20.01C17.12 20.03 17.15 20.06 17.17 20.08C17.2 20.11 17.22 20.13 17.25 20.16C17.28 20.19 17.3 20.21 17.33 20.24C17.35 20.26 17.38 20.29 17.41 20.31C17.43 20.34 17.46 20.36 17.48 20.39C17.51 20.41 17.54 20.44 17.56 20.47C17.59 20.49 17.61 20.52 17.64 20.54C17.67 20.57 17.69 20.59 17.72 20.62C17.74 20.64 17.77 20.67 17.8 20.69C17.82 20.72 17.85 20.75 17.87 20.77C17.9 20.8 17.93 20.82 17.95 20.85C17.98 20.87 18 20.9 18.03 20.92C18.05 20.95 18.08 20.98 18.11 21C18.13 21.03 18.16 21.05 18.19 21.08C18.21 21.1 18.24 21.13 18.26 21.15C18.29 21.18 18.32 21.21 18.34 21.23C18.37 21.26 18.39 21.28 18.42 21.31C18.44 21.33 18.47 21.36 18.5 21.38C18.52 21.41 18.55 21.43 18.57 21.46C18.6 21.49 18.63 21.51 18.65 21.54C18.68 21.56 18.7 21.59 18.73 21.61C18.76 21.64 18.78 21.66 18.81 21.69C18.83 21.72 18.86 21.74 18.89 21.77C18.91 21.79 18.94 21.82 18.96 21.84C18.99 21.87 19.01 21.89 19.04 21.92C19.07 21.95 19.09 21.97 19.12 22C19.14 22.02 19.17 22.05 19.2 22.07C19.22 22.1 19.25 22.12 19.27 22.15C19.28 22.16 19.29 22.17 19.3 22.17C19.1 22.17 18.14 22.17 16.41 22.17L16.41 34.67L16.49 34.67L16.49 34.75L16.56 34.75L16.56 34.82L16.64 34.82L16.64 34.9L16.72 34.9L16.72 34.98L16.8 34.98L16.8 35.05L16.88 35.05L16.88 35.13L16.95 35.13L16.95 35.2L17.03 35.2L17.03 35.28L17.11 35.28L17.11 35.36L17.19 35.36L17.19 35.43L17.27 35.43L17.27 35.51L17.34 35.51L17.34 35.58L17.42 35.58L17.42 35.66L17.5 35.66L17.5 35.74L17.58 35.74L17.58 35.81L17.65 35.81L17.65 35.89L17.73 35.89L17.73 35.97L17.81 35.97L17.81 36.05L17.89 36.05L17.89 36.12L17.97 36.12L17.97 36.2L18.04 36.2L18.04 36.27L18.12 36.27L18.12 36.35L18.2 36.35L18.2 36.43L18.28 36.43L18.28 36.5L18.35 36.5L18.35 36.58L18.43 36.58L18.43 36.65L18.51 36.65L18.51 36.73L18.59 36.73L18.59 36.81L18.67 36.81L18.67 36.88L18.74 36.88L18.74 36.96L18.82 36.96L18.82 37.03L18.9 37.03L18.9 37.11L18.98 37.11L18.98 37.19L19.06 37.19L19.06 37.27L19.13 37.27L19.13 37.34L19.21 37.34L19.21 37.42L19.29 37.42L19.29 37.5L19.37 37.5L19.37 37.57L19.45 37.57L19.45 37.65L19.52 37.65L19.52 37.72L19.6 37.72L19.6 37.8L19.68 37.8L19.68 37.87L19.76 37.87L19.76 37.95L19.83 37.95L19.83 38.03L19.91 38.03L19.91 38.1L19.99 38.1L19.99 38.18L20.07 38.18L20.07 38.26L20.14 38.26L20.14 38.33L20.22 38.33L20.22 38.41L20.3 38.41L20.3 38.48L20.38 38.48L20.38 38.56L20.46 38.56L20.46 38.63L20.53 38.63L20.53 38.71L20.61 38.71L20.61 38.79L20.69 38.79L20.69 38.86L20.77 38.86L20.77 38.94L20.85 38.94L20.85 39.01L20.92 39.01L20.92 39.09L21 39.09L21 39.17L21.08 39.17L21.08 39.24L21.16 39.24L21.16 39.32L21.23 39.32L21.23 39.4L21.31 39.4L21.31 39.47L21.39 39.47L21.39 39.55L21.47 39.55L21.47 39.62L21.55 39.62L21.55 39.7L21.62 39.7L21.62 39.77L21.7 39.77L21.7 39.85L21.79 39.85L21.79 39.93L21.87 39.93L21.87 40L21.94 40L21.94 40.08L22.02 40.08L22.02 40.15L22.1 40.15L22.1 40.23L22.18 40.23L22.18 40.31L22.25 40.31L22.25 40.38L22.33 40.38L22.33 40.46L22.41 40.46L22.41 40.53L22.49 40.53L22.49 40.61L22.57 40.61L22.57 40.69L22.64 40.69L22.64 40.76L22.72 40.76L22.72 40.84L22.8 40.84L22.8 40.91L22.88 40.91L22.88 40.99L22.95 40.99L22.95 41.07L23.03 41.07L23.03 41.14L23.11 41.14L23.11 41.22L23.19 41.22L23.19 41.29L23.27 41.29L23.27 41.37L23.34 41.37L23.34 41.45L23.42 41.45L23.42 41.52L23.5 41.52L23.5 41.6L23.58 41.6L23.58 41.67L23.65 41.67L23.65 41.75L23.74 41.75L23.74 41.83L23.81 41.83L23.81 41.95L23.89 41.95L23.89 42.03L23.97 42.03L23.97 42.11L24.05 42.11L24.05 42.18L24.13 42.18L24.13 42.26L24.2 42.26L24.2 42.33L24.28 42.33L24.28 42.41L24.36 42.41L24.36 42.48L24.44 42.48L24.44 42.56L24.51 42.56L24.51 42.64L24.59 42.64L24.59 42.71L24.67 42.71L24.67 42.79L24.75 42.79L24.75 42.87L24.83 42.87L24.83 42.94L24.9 42.94L24.9 43.02L24.98 43.02L24.98 43.09L25.06 43.09L25.06 43.17L25.14 43.17L25.14 43.25L25.21 43.25L25.21 43.33L25.29 43.33L25.29 43.4L25.37 43.4L25.37 43.48L25.45 43.48L25.45 43.55L25.53 43.55L25.53 43.63L25.6 43.63L25.6 43.71L25.68 43.71L25.68 43.78L25.76 43.78L25.76 43.86L25.84 43.86L25.84 43.93L25.91 43.93L25.91 44.01L25.99 44.01L25.99 44.09L26.07 44.09L26.07 44.16L26.14 44.16L26.14 44.24L26.22 44.24L26.22 44.31L26.3 44.31L26.3 44.39L26.38 44.39L26.38 44.47L26.45 44.47L26.45 44.55L26.53 44.55L26.53 44.62L26.61 44.62L26.61 44.7L26.69 44.7L26.69 44.78L26.76 44.78L26.76 44.85L26.84 44.85L26.84 44.93L26.92 44.93L26.92 45L27 45L27 45.08L27.07 45.08L27.07 45.16L27.15 45.16L27.15 45.23L27.23 45.23L27.23 45.31L27.3 45.31L27.3 45.38L27.38 45.38L27.38 45.46L27.46 45.46L27.46 45.53L27.54 45.53L27.54 45.61L27.61 45.61L27.61 45.69L27.69 45.69L27.69 45.76L27.77 45.76L27.77 45.84L27.85 45.84L27.85 45.92L27.92 45.92L27.92 45.99L28 45.99L28 46.07L28.08 46.07L28.08 46.14L28.16 46.14L28.16 46.22L28.23 46.22L28.23 46.29L28.31 46.29L28.31 46.37L28.39 46.37L28.39 46.45L28.47 46.45L28.47 46.52L28.54 46.52L28.54 46.6L28.62 46.6L28.62 46.68L28.7 46.68L28.7 46.75L28.77 46.75L28.77 46.83L28.85 46.83L28.85 46.9L28.93 46.9L28.93 46.98L29.01 46.98L29.01 47.06L29.08 47.06L29.08 47.13L29.16 47.13L29.16 47.21L29.24 47.21L29.24 47.28L29.32 47.28L29.32 47.36L29.39 47.36L29.39 47.43L29.47 47.43L29.47 47.51L29.55 47.51L29.55 47.59L29.62 47.59L29.62 47.66L29.7 47.66L29.7 47.74L29.78 47.74L29.78 47.82L29.86 47.82L29.86 47.89L29.93 47.89L29.93 47.97L30.01 47.97L30.01 48.04L30.09 48.04L30.09 48.12L30.17 48.12L30.17 48.19L30.24 48.19L30.24 48.27L30.32 48.27L30.32 48.35L30.4 48.35L30.4 48.44L30.48 48.44L30.48 48.52L30.55 48.52L30.55 48.59L30.63 48.59L30.63 48.67L30.71 48.67L30.71 48.74L30.78 48.74L30.78 48.82L30.88 48.82L30.88 48.9L30.96 48.9L30.96 48.97L31.04 48.97L31.04 49.05L31.12 49.05L31.12 49.12L31.19 49.12L31.19 49.2L31.27 49.2L31.27 49.28L31.35 49.28L31.35 49.35L31.42 49.35L31.42 49.43L31.5 49.43L31.5 49.5L31.58 49.5L31.58 49.58L31.66 49.58L31.66 49.66L31.73 49.66L31.73 49.73L31.81 49.73L31.81 49.81L31.89 49.81L31.89 49.88L31.97 49.88L31.97 49.96L32.04 49.96L32.04 50.04L32.12 50.04L32.12 50.11L32.2 50.11L32.2 50.19L32.28 50.19L32.28 50.26L32.35 50.26L32.35 50.34L32.43 50.34L32.43 50.46L32.51 50.46L32.51 50.53L32.58 50.53L32.58 50.61L32.66 50.61L32.66 50.69L32.74 50.69L32.74 50.76L32.82 50.76L32.82 50.84L32.89 50.84L32.89 50.91L32.97 50.91L32.97 50.99L33.05 50.99L33.05 51.07L33.13 51.07L33.13 51.14L33.2 51.14L33.2 51.22L33.28 51.22L33.28 51.29L33.36 51.29L33.36 51.37L33.44 51.37L33.44 51.45L33.51 51.45L33.51 51.52L33.59 51.52L33.59 51.6L33.67 51.6L33.67 51.67L33.74 51.67L33.74 51.75L33.82 51.75L33.82 51.83L33.9 51.83L33.9 51.9L33.98 51.9L33.98 51.98L34.05 51.98L34.05 52.05L34.13 52.05L34.13 52.13L34.21 52.13L34.21 52.21L34.29 52.21L34.29 52.28L34.36 52.28L34.36 52.36L34.48 52.36L34.48 52.43L34.56 52.43L34.56 52.51L34.63 52.51L34.63 52.59L34.71 52.59L34.71 52.66L34.79 52.66L34.79 52.74L34.87 52.74L34.87 52.81L34.94 52.81L34.94 52.89L35.02 52.89L35.02 52.97L35.1 52.97L35.1 53.05L35.17 53.05L35.17 53.13L35.25 53.13L35.25 53.21L35.33 53.21L35.33 53.28L35.41 53.28L35.41 53.36L35.48 53.36L35.48 53.43L35.56 53.43L35.56 53.51L35.64 53.51L35.64 53.59L35.72 53.59L35.72 53.66L35.79 53.66L35.79 53.74L35.87 53.74L35.87 53.81L35.95 53.81L35.95 53.89L36.03 53.89L36.03 53.97L36.1 53.97L36.1 54.04L36.18 54.04L36.18 54.12L36.26 54.12L36.26 54.19L36.33 54.19L36.33 54.27L36.41 54.27L36.41 54.35L36.49 54.35L36.49 54.42L36.57 54.42L36.57 54.5L36.64 54.5L36.64 54.57L36.72 54.57L36.72 54.65L36.8 54.65L36.8 54.73L36.88 54.73L36.88 54.8L36.95 54.8L36.95 54.88L37.03 54.88L37.03 54.95L37.11 54.95L37.11 55.03L37.19 55.03L37.19 55.11L37.26 55.11L37.26 55.18L37.34 55.18L37.34 55.26L37.42 55.26L37.42 55.33L37.49 55.33L37.49 55.41L37.57 55.41L37.57 55.49L37.65 55.49L37.65 55.56L37.73 55.56L37.73 55.65L37.8 55.65L37.8 55.73L37.88 55.73L37.88 55.8L37.96 55.8L37.96 55.88L38.04 55.88L38.04 55.95L38.11 55.95L38.11 56.03L38.19 56.03L38.19 56.11L38.27 56.11L38.27 56.18L38.35 56.18L38.35 56.26L38.42 56.26L38.42 56.33L38.5 56.33L38.5 56.41L38.61 56.41L38.61 56.48L38.68 56.48L38.68 56.56L38.76 56.56L38.76 56.64L38.84 56.64L38.84 56.71L38.92 56.71L38.92 56.79L38.99 56.79L38.99 56.86L39.07 56.86L39.07 56.94L39.15 56.94L39.15 57.02L39.23 57.02L39.23 57.09L39.3 57.09L39.3 57.17L39.38 57.17L39.38 57.24L39.46 57.24L39.46 57.32L39.54 57.32L39.54 57.4L39.61 57.4L39.61 57.47L39.69 57.47L39.69 57.55L39.77 57.55L39.77 57.62L39.85 57.62L39.85 57.74L43.6 57.74L43.6 55.21L43.61 55.21L43.61 55.29L43.68 55.29L43.68 55.36L43.76 55.36L43.76 55.44L43.84 55.44L43.84 55.51L43.92 55.51L43.92 55.59L43.99 55.59L43.99 55.67L44.07 55.67L44.07 55.74L44.15 55.74L44.15 55.82L44.23 55.82L44.23 55.89L44.3 55.89L44.3 55.97L44.38 55.97L44.38 56.05L44.46 56.05L44.46 56.12L44.54 56.12L44.54 56.2L44.61 56.2L44.61 56.28L44.69 56.28L44.69 56.35L44.77 56.35L44.77 56.43L44.84 56.43L44.84 56.5L44.92 56.5L44.92 56.58L45 56.58L45 56.65L45.08 56.65L45.08 56.73L45.15 56.73L45.15 56.81L45.23 56.81L45.23 56.88L45.31 56.88L45.31 56.96L45.39 56.96L45.39 57.03L45.46 57.03L45.46 57.11L45.54 57.11L45.54 57.19L45.62 57.19L45.62 57.26L45.69 57.26L45.69 57.34L45.77 57.34L45.77 57.41L45.85 57.41L45.85 57.49L45.93 57.49L45.93 57.57L46 57.57L46 57.64L46.08 57.64L46.08 57.74L49.83 57.74L49.83 53.37L49.85 53.37L49.85 53.45L49.93 53.45L49.93 53.52L50.01 53.52L50.01 53.6L50.08 53.6L50.08 53.68L50.16 53.68L50.16 53.75L50.24 53.75L50.24 53.83L50.31 53.83L50.31 53.9L50.39 53.9L50.39 53.98L50.52 53.98L50.52 54.05L50.59 54.05L50.59 54.13L50.67 54.13L50.67 54.21L50.75 54.21L50.75 54.28L50.83 54.28L50.83 54.36L50.9 54.36L50.9 54.43L50.98 54.43L50.98 54.51L51.06 54.51L51.06 54.59L51.14 54.59L51.14 54.66L51.21 54.66L51.21 54.74L51.29 54.74L51.29 54.82L51.37 54.82L51.37 54.89L51.44 54.89L51.44 54.97L51.52 54.97L51.52 55.04L51.6 55.04L51.6 55.12L51.68 55.12L51.68 55.19L51.76 55.19L51.76 55.27L51.83 55.27L51.83 55.35L51.91 55.35L51.91 55.42L51.99 55.42L51.99 55.5L52.06 55.5L52.06 55.57L52.14 55.57L52.14 55.65L52.22 55.65L52.22 55.73L52.3 55.73L52.3 55.8L52.37 55.8L52.37 55.88L52.47 55.88L52.47 55.95L52.54 55.95L52.54 56.03L52.62 56.03L52.62 56.11L52.7 56.11L52.7 56.18L52.78 56.18L52.78 56.26L52.85 56.26L52.85 56.33L52.93 56.33L52.93 56.41L53.01 56.41L53.01 56.49L53.09 56.49L53.09 56.56L53.16 56.56L53.16 56.64L53.24 56.64L53.24 56.71L53.32 56.71L53.32 56.79L53.4 56.79L53.4 56.87L53.47 56.87L53.47 56.94L53.55 56.94L53.55 57.02L53.63 57.02L53.63 57.09L53.7 57.09L53.7 57.17L53.78 57.17L53.78 57.25L53.86 57.25L53.86 57.32L53.94 57.32L53.94 57.4L54.01 57.4L54.01 57.47L54.09 57.47L54.09 57.55L54.17 57.55L54.17 57.63L54.25 57.63L54.25 57.74L58 57.74C58 53.62 58 51.33 58 50.87C58.01 48.76 57.84 47.08 56.74 46.13C56.71 46.1 56.69 46.08 56.66 46.05Z" id="bvrtgMULj"></path><linearGradient id="gradientd77Bum5Bi" gradientUnits="userSpaceOnUse" x1="55.97" y1="59.77" x2="14.73" y2="18.58"><stop style="stop-color: #000000;stop-opacity: 0" offset="52.55%"></stop><stop style="stop-color: #000000;stop-opacity: 0.1133" offset="57.92%"></stop><stop style="stop-color: #000000;stop-opacity: 1" offset="100%"></stop></linearGradient><path d="M26.42 22.18L26.42 24.05C26.42 24.05 26.42 24.05 26.42 24.05C26.94 23.07 28.28 22.18 30.17 22.18C34.11 22.18 34.55 24.44 34.55 27.8C34.55 28.26 34.55 30.55 34.55 34.67L30.8 34.67C30.8 30.92 30.8 28.84 30.8 28.42C30.8 26.98 30.92 25.3 28.92 25.3C26.42 25.3 26.42 26.8 26.42 28.42C26.42 28.84 26.42 30.92 26.42 34.67L22.66 34.67L22.67 22.18L22.67 22.18L26.42 22.18Z" id="c1LIPj4xzP"></path><path d="M20.16 22.18C20.16 22.18 20.16 22.18 20.16 22.18C20.16 29.67 20.16 33.84 20.16 34.67C20.16 34.67 20.16 34.67 20.16 34.67C17.91 34.67 16.66 34.67 16.41 34.67C16.41 34.67 16.41 34.67 16.41 34.67C16.41 27.17 16.41 23.01 16.41 22.18C16.41 22.18 16.41 22.18 16.41 22.18C18.66 22.18 19.91 22.18 20.16 22.18Z" id="am8AugjH1"></path><path d="M18.29 15.93C17.08 15.93 16.1 16.91 16.1 18.12C16.1 19.32 17.08 20.3 18.29 20.3C19.5 20.3 20.48 19.32 20.48 18.12C20.48 16.91 19.5 15.93 18.29 15.93Z" id="b8eNmCmOR"></path></defs><g><g><g><use xlink:href="#a1iWk6dQh" opacity="1" fill="url(#gradientb1dlB0V9xB)"></use><g><use xlink:href="#a1iWk6dQh" opacity="1" fill-opacity="0" stroke="#000000" stroke-width="1" stroke-opacity="0"></use></g></g><g><use xlink:href="#d8LKOPbCU" opacity="1" fill="#0e76a8" fill-opacity="1"></use><g><use xlink:href="#d8LKOPbCU" opacity="1" fill-opacity="0" stroke="#000000" stroke-width="1" stroke-opacity="0"></use></g></g><g><use xlink:href="#bvrtgMULj" opacity="1" fill="url(#gradientd77Bum5Bi)"></use><g><use xlink:href="#bvrtgMULj" opacity="1" fill-opacity="0" stroke="#000000" stroke-width="1" stroke-opacity="0"></use></g></g><g><use xlink:href="#c1LIPj4xzP" opacity="1" fill="#ffffff" fill-opacity="1"></use><g><use xlink:href="#c1LIPj4xzP" opacity="1" fill-opacity="0" stroke="#000000" stroke-width="1" stroke-opacity="0"></use></g></g><g><use xlink:href="#am8AugjH1" opacity="1" fill="#ffffff" fill-opacity="1"></use><g><use xlink:href="#am8AugjH1" opacity="1" fill-opacity="0" stroke="#000000" stroke-width="1" stroke-opacity="0"></use></g></g><g><use xlink:href="#b8eNmCmOR" opacity="1" fill="#ffffff" fill-opacity="1"></use><g><use xlink:href="#b8eNmCmOR" opacity="1" fill-opacity="0" stroke="#000000" stroke-width="1" stroke-opacity="0"></use></g></g></g></g></svg>