<?xml version="1.0" encoding="UTF-8" standalone="no"?>
<!DOCTYPE svg PUBLIC "-//W3C//DTD SVG 1.1//EN" "http://www.w3.org/Graphics/SVG/1.1/DTD/svg11.dtd">
<svg version="1.1" xmlns="http://www.w3.org/2000/svg" xmlns:xlink="http://www.w3.org/1999/xlink" preserveAspectRatio="xMidYMid meet" viewBox="0 0 640 640" width="35" height="35"><defs><path d="M324.55 20C150.03 19.69 8.3 157.58 8 327.98C7.7 498.38 148.93 636.77 323.45 637.08C497.97 637.39 639.7 499.5 640 329.1C640.3 158.7 499.07 20.31 324.55 20Z" id="dpOEFikkC"></path><path d="M344.09 272.86L344.03 306.3C344.03 306.3 344.03 306.3 344.03 306.3C353.52 288.8 378.06 272.92 412.54 272.98C484.32 273.11 492.34 313.42 492.23 373.41C492.22 381.58 492.14 422.43 492.01 495.96L423.55 495.84C423.66 428.99 423.73 391.85 423.74 384.42C423.79 358.59 425.99 328.72 389.6 328.66C343.95 328.57 343.9 355.22 343.85 384.28C343.84 391.71 343.77 428.85 343.65 495.7L275.18 495.58L275.61 272.74L275.61 272.74L344.09 272.86Z" id="aiCXrkLRa"></path><path d="M229.96 272.66C229.96 272.66 229.96 272.66 229.96 272.66C229.72 406.36 229.59 480.64 229.56 495.5C229.56 495.5 229.56 495.5 229.56 495.5C188.48 495.42 165.66 495.38 161.1 495.38C161.1 495.38 161.1 495.38 161.1 495.38C161.33 361.67 161.46 287.39 161.49 272.53C161.49 272.53 161.49 272.53 161.49 272.53C202.57 272.61 225.39 272.65 229.96 272.66Z" id="eP1S2Vfw"></path><path d="M195.92 161.19C173.87 161.15 155.96 178.57 155.92 200.11C155.88 221.64 173.73 239.13 195.78 239.17C217.84 239.21 235.75 221.78 235.79 200.25C235.83 178.71 217.98 161.23 195.92 161.19Z" id="bjdVtPCf0"></path></defs><g><g><g><use xlink:href="#dpOEFikkC" opacity="1" fill="#489458" fill-opacity="1"></use><g><use xlink:href="#dpOEFikkC" opacity="1" fill-opacity="0" stroke="#000000" stroke-width="1" stroke-opacity="0"></use></g></g><g><use xlink:href="#aiCXrkLRa" opacity="1" fill="#ffffff" fill-opacity="1"></use><g><use xlink:href="#aiCXrkLRa" opacity="1" fill-opacity="0" stroke="#000000" stroke-width="1" stroke-opacity="0"></use></g></g><g><use xlink:href="#eP1S2Vfw" opacity="1" fill="#ffffff" fill-opacity="1"></use><g><use xlink:href="#eP1S2Vfw" opacity="1" fill-opacity="0" stroke="#000000" stroke-width="1" stroke-opacity="0"></use></g></g><g><use xlink:href="#bjdVtPCf0" opacity="1" fill="#ffffff" fill-opacity="1"></use><g><use xlink:href="#bjdVtPCf0" opacity="1" fill-opacity="0" stroke="#000000" stroke-width="1" stroke-opacity="0"></use></g></g></g></g></svg>