<?xml version="1.0" encoding="UTF-8" standalone="no"?>
<!DOCTYPE svg PUBLIC "-//W3C//DTD SVG 1.1//EN" "http://www.w3.org/Graphics/SVG/1.1/DTD/svg11.dtd">
<svg version="1.1" viewBox="0 0 25 25"xmlns="http://www.w3.org/2000/svg" xmlns:xlink="http://www.w3.org/1999/xlink" preserveAspectRatio="xMidYMid meet" viewBox="0 0 640 640" width="25" height="25"><defs><path d="M319.02 632C492.82 632.02 633.71 490.53 633.71 316.01C633.71 141.49 492.83 0 319.06 0C145.26 0 4.38 141.47 4.38 315.99C4.38 490.51 145.25 632 319.02 632Z" id="a2koOqD1VR"></path><path d="M319.02 632C492.82 632.02 633.71 490.53 633.71 316.01C633.71 141.49 492.83 0 319.06 0C145.26 0 4.38 141.47 4.38 315.99C4.38 490.51 145.25 632 319.02 632Z" id="d6U9tJCD1"></path><path d="M306.3 632C473.06 632.02 608.24 498.34 608.24 333.44C608.24 168.55 473.07 34.87 306.32 34.87C139.56 34.85 4.38 168.53 4.38 333.44C4.38 498.32 139.55 632 306.3 632Z" id="a2eYNzM6V4"></path><path d="M306.3 632C473.06 632.02 608.24 498.34 608.24 333.44C608.24 168.55 473.07 34.87 306.32 34.87C139.56 34.85 4.38 168.53 4.38 333.44C4.38 498.32 139.55 632 306.3 632Z" id="a81RSwQDHo"></path><path d="M338.95 293.18C348.36 275.24 372.77 258.94 407.11 258.94C478.59 258.94 486.64 300.22 486.64 361.66C486.64 370.02 486.64 411.87 486.62 487.18C479.81 487.18 425.28 487.18 418.46 487.18C418.46 418.69 418.46 380.66 418.46 373.06C418.46 346.61 420.6 316.01 384.36 316.01C338.9 316.01 338.9 343.3 338.9 373.04C338.9 380.66 338.9 418.69 338.9 487.18C334.35 487.18 311.63 487.17 270.72 487.17C270.73 471.95 270.74 395.87 270.76 258.94L270.76 258.94C311.67 258.94 334.41 258.94 338.95 258.94C338.95 279.48 338.95 290.9 338.95 293.18C338.95 293.18 338.95 293.18 338.95 293.18Z" id="b2FQS1AU9"></path><path d="M338.95 293.18C348.36 275.24 372.77 258.94 407.11 258.94C478.59 258.94 486.64 300.22 486.64 361.66C486.64 370.02 486.64 411.87 486.62 487.18C479.81 487.18 425.28 487.18 418.46 487.18C418.46 418.69 418.46 380.66 418.46 373.06C418.46 346.61 420.6 316.01 384.36 316.01C338.9 316.01 338.9 343.3 338.9 373.04C338.9 380.66 338.9 418.69 338.9 487.18C334.35 487.18 311.63 487.17 270.72 487.17C270.73 471.95 270.74 395.87 270.76 258.94L270.76 258.94C311.67 258.94 334.41 258.94 338.95 258.94C338.95 279.48 338.95 290.9 338.95 293.18C338.95 293.18 338.95 293.18 338.95 293.18Z" id="c1AE95ZBYu"></path><path d="M338.95 293.18C348.36 275.24 372.77 258.94 407.11 258.94C478.59 258.94 486.64 300.22 486.64 361.66C486.64 370.02 486.64 411.87 486.62 487.18C479.81 487.18 425.28 487.18 418.46 487.18C418.46 418.69 418.46 380.66 418.46 373.06C418.46 346.61 420.6 316.01 384.36 316.01C338.9 316.01 338.9 343.3 338.9 373.04C338.9 380.66 338.9 418.69 338.9 487.18C334.35 487.18 311.63 487.17 270.72 487.17C270.73 471.95 270.74 395.87 270.76 258.94L270.76 258.94C311.67 258.94 334.41 258.94 338.95 258.94C338.95 279.48 338.95 290.9 338.95 293.18C338.95 293.18 338.95 293.18 338.95 293.18Z" id="aApXVLvEE"></path><path d="M338.95 293.18C348.36 275.24 372.77 258.94 407.11 258.94C478.59 258.94 486.64 300.22 486.64 361.66C486.64 370.02 486.64 411.87 486.62 487.18C479.81 487.18 425.28 487.18 418.46 487.18C418.46 418.69 418.46 380.66 418.46 373.06C418.46 346.61 420.6 316.01 384.36 316.01C338.9 316.01 338.9 343.3 338.9 373.04C338.9 380.66 338.9 418.69 338.9 487.18C334.35 487.18 311.63 487.17 270.72 487.17C270.73 471.95 270.74 395.87 270.76 258.94L270.76 258.94C311.67 258.94 334.41 258.94 338.95 258.94C338.95 279.48 338.95 290.9 338.95 293.18C338.95 293.18 338.95 293.18 338.95 293.18Z" id="d4qwq1yimb"></path><path d="M225 486.99C225 486.99 225 486.99 225 486.99C184.09 486.92 161.37 486.88 156.84 486.88C156.84 486.88 156.84 486.88 156.84 486.88C157.06 349.93 157.19 273.86 157.22 258.63C157.22 258.63 157.22 258.63 157.22 258.63C198.13 258.73 220.85 258.77 225.4 258.77C225.4 258.77 225.4 258.77 225.4 258.77C225.16 395.72 225.03 471.79 225 486.99Z" id="aeOcwyV4Y"></path><path d="M225 486.99C225 486.99 225 486.99 225 486.99C184.09 486.92 161.37 486.88 156.84 486.88C156.84 486.88 156.84 486.88 156.84 486.88C157.06 349.93 157.19 273.86 157.22 258.63C157.22 258.63 157.22 258.63 157.22 258.63C198.13 258.73 220.85 258.77 225.4 258.77C225.4 258.77 225.4 258.77 225.4 258.77C225.16 395.72 225.03 471.79 225 486.99Z" id="gpaxAbMfa"></path><path d="M225 486.99C225 486.99 225 486.99 225 486.99C184.09 486.92 161.37 486.88 156.84 486.88C156.84 486.88 156.84 486.88 156.84 486.88C157.06 349.93 157.19 273.86 157.22 258.63C157.22 258.63 157.22 258.63 157.22 258.63C198.13 258.73 220.85 258.77 225.4 258.77C225.4 258.77 225.4 258.77 225.4 258.77C225.16 395.72 225.03 471.79 225 486.99Z" id="ewVXaVdqx"></path><path d="M225 486.99C225 486.99 225 486.99 225 486.99C184.09 486.92 161.37 486.88 156.84 486.88C156.84 486.88 156.84 486.88 156.84 486.88C157.06 349.93 157.19 273.86 157.22 258.63C157.22 258.63 157.22 258.63 157.22 258.63C198.13 258.73 220.85 258.77 225.4 258.77C225.4 258.77 225.4 258.77 225.4 258.77C225.16 395.72 225.03 471.79 225 486.99Z" id="a3QUL90O5"></path><path d="M191.36 224.46C213.32 224.52 231.17 206.66 231.2 184.61C231.24 162.55 213.47 144.64 191.5 144.61C169.54 144.57 151.71 162.41 151.68 184.46C151.62 206.52 169.4 224.43 191.36 224.46Z" id="cZLtwacJo"></path><path d="M191.36 224.46C213.32 224.52 231.17 206.66 231.2 184.61C231.24 162.55 213.47 144.64 191.5 144.61C169.54 144.57 151.71 162.41 151.68 184.46C151.62 206.52 169.4 224.43 191.36 224.46Z" id="ddSsDAz9"></path><path d="M191.36 224.46C213.32 224.52 231.17 206.66 231.2 184.61C231.24 162.55 213.47 144.64 191.5 144.61C169.54 144.57 151.71 162.41 151.68 184.46C151.62 206.52 169.4 224.43 191.36 224.46Z" id="bpWNmF4FA"></path><path d="M191.36 224.46C213.32 224.52 231.17 206.66 231.2 184.61C231.24 162.55 213.47 144.64 191.5 144.61C169.54 144.57 151.71 162.41 151.68 184.46C151.62 206.52 169.4 224.43 191.36 224.46Z" id="c1goRpOjVu"></path></defs><g><g><g><use xlink:href="#a2koOqD1VR" opacity="1" fill="#489458" fill-opacity="1"></use><g><use xlink:href="#a2koOqD1VR" opacity="1" fill-opacity="0" stroke="#000000" stroke-width="1" stroke-opacity="0"></use></g></g><g><use xlink:href="#d6U9tJCD1" opacity="1" fill="#000000" fill-opacity="0"></use><g><use xlink:href="#d6U9tJCD1" opacity="1" fill-opacity="0" stroke="#000000" stroke-width="1" stroke-opacity="0"></use></g></g><g><use xlink:href="#a2eYNzM6V4" opacity="1" fill="#000000" fill-opacity="0"></use><g><use xlink:href="#a2eYNzM6V4" opacity="1" fill-opacity="0" stroke="#000000" stroke-width="1" stroke-opacity="0"></use></g></g><g><use xlink:href="#a81RSwQDHo" opacity="1" fill="#000000" fill-opacity="0"></use><g><use xlink:href="#a81RSwQDHo" opacity="1" fill-opacity="0" stroke="#000000" stroke-width="1" stroke-opacity="0"></use></g></g><g><use xlink:href="#b2FQS1AU9" opacity="1" fill="#ffffff" fill-opacity="1"></use><g><use xlink:href="#b2FQS1AU9" opacity="1" fill-opacity="0" stroke="#000000" stroke-width="1" stroke-opacity="0"></use></g></g><g><use xlink:href="#c1AE95ZBYu" opacity="1" fill="#000000" fill-opacity="0"></use><g><use xlink:href="#c1AE95ZBYu" opacity="1" fill-opacity="0" stroke="#000000" stroke-width="1" stroke-opacity="0"></use></g></g><g><use xlink:href="#aApXVLvEE" opacity="1" fill="#000000" fill-opacity="0"></use><g><use xlink:href="#aApXVLvEE" opacity="1" fill-opacity="0" stroke="#000000" stroke-width="1" stroke-opacity="0"></use></g></g><g><use xlink:href="#d4qwq1yimb" opacity="1" fill="#000000" fill-opacity="0"></use><g><use xlink:href="#d4qwq1yimb" opacity="1" fill-opacity="0" stroke="#000000" stroke-width="1" stroke-opacity="0"></use></g></g><g><use xlink:href="#aeOcwyV4Y" opacity="1" fill="#ffffff" fill-opacity="1"></use><g><use xlink:href="#aeOcwyV4Y" opacity="1" fill-opacity="0" stroke="#000000" stroke-width="1" stroke-opacity="0"></use></g></g><g><use xlink:href="#gpaxAbMfa" opacity="1" fill="#000000" fill-opacity="0"></use><g><use xlink:href="#gpaxAbMfa" opacity="1" fill-opacity="0" stroke="#000000" stroke-width="1" stroke-opacity="0"></use></g></g><g><use xlink:href="#ewVXaVdqx" opacity="1" fill="#000000" fill-opacity="0"></use><g><use xlink:href="#ewVXaVdqx" opacity="1" fill-opacity="0" stroke="#000000" stroke-width="1" stroke-opacity="0"></use></g></g><g><use xlink:href="#a3QUL90O5" opacity="1" fill="#000000" fill-opacity="0"></use><g><use xlink:href="#a3QUL90O5" opacity="1" fill-opacity="0" stroke="#000000" stroke-width="1" stroke-opacity="0"></use></g></g><g><use xlink:href="#cZLtwacJo" opacity="1" fill="#ffffff" fill-opacity="1"></use><g><use xlink:href="#cZLtwacJo" opacity="1" fill-opacity="0" stroke="#000000" stroke-width="1" stroke-opacity="0"></use></g></g><g><use xlink:href="#ddSsDAz9" opacity="1" fill="#000000" fill-opacity="0"></use><g><use xlink:href="#ddSsDAz9" opacity="1" fill-opacity="0" stroke="#000000" stroke-width="1" stroke-opacity="0"></use></g></g><g><use xlink:href="#bpWNmF4FA" opacity="1" fill="#000000" fill-opacity="0"></use><g><use xlink:href="#bpWNmF4FA" opacity="1" fill-opacity="0" stroke="#000000" stroke-width="1" stroke-opacity="0"></use></g></g><g><use xlink:href="#c1goRpOjVu" opacity="1" fill="#000000" fill-opacity="0"></use><g><use xlink:href="#c1goRpOjVu" opacity="1" fill-opacity="0" stroke="#000000" stroke-width="1" stroke-opacity="0"></use></g></g></g></g></svg>
